<?xml version="1.0" encoding="UTF-8"?>
<svg width="545px" height="392px" viewBox="0 0 545 392" version="1.1" xmlns="http://www.w3.org/2000/svg" xmlns:xlink="http://www.w3.org/1999/xlink">
    <!-- Generator: Sketch 52.2 (67145) - http://www.bohemiancoding.com/sketch -->
    <title>undraw_savings_hjfl</title>
    <desc>Created with Sketch.</desc>
    <defs>
        <linearGradient x1="49.9959763%" y1="100.000857%" x2="49.9959763%" y2="0.0159995781%" id="linearGradient-1">
            <stop stop-color="#808080" stop-opacity="0.25" offset="0%"></stop>
            <stop stop-color="#808080" stop-opacity="0.12" offset="54%"></stop>
            <stop stop-color="#808080" stop-opacity="0.1" offset="100%"></stop>
        </linearGradient>
    </defs>
    <g id="Page-1" stroke="none" stroke-width="1" fill="none" fill-rule="evenodd">
        <g id="undraw_savings_hjfl">
            <ellipse id="Oval" fill="#6C63FF" opacity="0.1" cx="272.5" cy="359.023723" rx="272.5" ry="32.8193431"></ellipse>
            <path d="M465.437956,373.941606 C465.437956,373.941606 479.445697,355.891089 478.311622,337.981667 C477.789787,330.473195 479.68667,322.995833 483.717697,316.671353 C485.658234,313.686437 487.861694,310.885527 490.301095,308.30292" id="Path" stroke="#535461" stroke-width="2"></path>
            <path d="M489.637669,296.722708 C488.614926,299.44257 490.288055,309.297445 490.288055,309.297445 C490.288055,309.297445 497.879199,303.377126 498.896978,300.651984 C499.55681,298.892523 499.284114,296.892257 498.18161,295.404665 C497.079107,293.917074 495.314293,293.168158 493.551956,293.440028 C491.78962,293.711897 490.297502,294.963248 489.637669,296.722708 Z" id="Path" fill="#6C63FF"></path>
            <path d="M478.482538,308.441591 C479.014128,311.21003 485.437915,318.248175 485.437915,318.248175 C485.437915,318.248175 488.786431,309.230393 488.254842,306.456865 C487.719797,303.687019 485.094004,301.88591 482.389969,302.433977 C479.685935,302.982045 477.927621,305.671745 478.462666,308.441591 L478.482538,308.441591 Z" id="Path" fill="#6C63FF"></path>
            <path d="M468.660905,332.440662 C470.462255,334.489516 479.361314,337.144161 479.361314,337.144161 C479.361314,337.144161 477.829188,327.934168 476.027838,325.885314 C474.228713,323.838459 471.12109,323.646619 469.086768,325.456828 C467.052445,327.267037 466.86178,330.393806 468.660905,332.440662 Z" id="Path" fill="#6C63FF"></path>
            <path d="M465.21162,353.141408 C466.70262,355.61728 475.383101,360.018248 475.383101,360.018248 C475.383101,360.018248 475.423951,350.051813 473.93295,347.596923 C472.44255,345.12288 469.282006,344.358448 466.873677,345.889515 C464.465348,347.420583 463.72122,350.667365 465.21162,353.141408 Z" id="Path" fill="#6C63FF"></path>
            <path d="M493.970542,322.856274 C491.253735,323.904159 481.350365,322.359645 481.350365,322.359645 C481.350365,322.359645 487.175877,314.701637 489.913867,313.653752 C492.629596,312.603259 495.739246,313.816167 496.859466,316.362859 C497.979686,318.909551 496.68627,321.825646 493.970542,322.876139 L493.970542,322.856274 Z" id="Path" fill="#6C63FF"></path>
            <path d="M489.662328,345.090369 C486.881267,345.33319 478.366788,341.07143 478.366788,341.07143 C478.366788,341.07143 485.994552,335.417165 488.780651,335.174343 C491.563146,334.934868 494.016174,336.959403 494.259642,339.696269 C494.503111,342.433136 492.444823,344.845938 489.662328,345.085414 L489.662328,345.090369 Z" id="Path" fill="#6C63FF"></path>
            <path d="M484.462577,367.861524 C481.703718,368.563022 472.399635,365.76698 472.399635,365.76698 C472.399635,365.76698 479.078436,358.89628 481.837294,358.194782 C484.593813,357.492743 487.416103,359.087602 488.141055,361.756999 C488.866007,364.426396 487.219096,367.159485 484.462577,367.861524 Z" id="Path" fill="#6C63FF"></path>
            <path d="M489.637669,296.722708 C488.614926,299.44257 490.288055,309.297445 490.288055,309.297445 C490.288055,309.297445 497.879199,303.377126 498.896978,300.651984 C499.55681,298.892523 499.284114,296.892257 498.18161,295.404665 C497.079107,293.917074 495.314293,293.168158 493.551956,293.440028 C491.78962,293.711897 490.297502,294.963248 489.637669,296.722708 Z" id="Path" fill="#000000" opacity="0.25"></path>
            <path d="M478.482538,308.441591 C479.014128,311.21003 485.437915,318.248175 485.437915,318.248175 C485.437915,318.248175 488.786431,309.230393 488.254842,306.456865 C487.719797,303.687019 485.094004,301.88591 482.389969,302.433977 C479.685935,302.982045 477.927621,305.671745 478.462666,308.441591 L478.482538,308.441591 Z" id="Path" fill="#000000" opacity="0.25"></path>
            <path d="M468.660905,332.440662 C470.462255,334.489516 479.361314,337.144161 479.361314,337.144161 C479.361314,337.144161 477.829188,327.934168 476.027838,325.885314 C474.228713,323.838459 471.12109,323.646619 469.086768,325.456828 C467.052445,327.267037 466.86178,330.393806 468.660905,332.440662 Z" id="Path" fill="#000000" opacity="0.25"></path>
            <path d="M465.21162,353.141408 C466.70262,355.61728 475.383101,360.018248 475.383101,360.018248 C475.383101,360.018248 475.423951,350.051813 473.93295,347.596923 C472.44255,345.12288 469.282006,344.358448 466.873677,345.889515 C464.465348,347.420583 463.72122,350.667365 465.21162,353.141408 Z" id="Path" fill="#000000" opacity="0.25"></path>
            <path d="M493.970542,322.856274 C491.253735,323.904159 481.350365,322.359645 481.350365,322.359645 C481.350365,322.359645 487.175877,314.701637 489.913867,313.653752 C492.629596,312.603259 495.739246,313.816167 496.859466,316.362859 C497.979686,318.909551 496.68627,321.825646 493.970542,322.876139 L493.970542,322.856274 Z" id="Path" fill="#000000" opacity="0.25"></path>
            <path d="M489.662328,345.090369 C486.881267,345.33319 478.366788,341.07143 478.366788,341.07143 C478.366788,341.07143 485.994552,335.417165 488.780651,335.174343 C491.563146,334.934868 494.016174,336.959403 494.259642,339.696269 C494.503111,342.433136 492.444823,344.845938 489.662328,345.085414 L489.662328,345.090369 Z" id="Path" fill="#000000" opacity="0.25"></path>
            <path d="M484.462577,367.861524 C481.703718,368.563022 472.399635,365.76698 472.399635,365.76698 C472.399635,365.76698 479.078436,358.89628 481.837294,358.194782 C484.593813,357.492743 487.416103,359.087602 488.141055,361.756999 C488.866007,364.426396 487.219096,367.159485 484.462577,367.861524 Z" id="Path" fill="#000000" opacity="0.25"></path>
            <path d="M466.432482,373.941606 C466.432482,373.941606 486.766847,363.205471 492.990557,346.396863 C495.552292,339.330742 500.343953,333.281638 506.647603,329.155894 C509.659921,327.223321 512.843601,325.569561 516.158759,324.215328" id="Path" stroke="#535461" stroke-width="2"></path>
            <path d="M520.110145,313.631896 C518.239667,315.473319 516.158759,324.215328 516.158759,324.215328 C516.158759,324.215328 524.819075,322.288479 526.675525,320.451803 C527.875883,319.264912 528.361164,317.518246 527.948569,315.869757 C527.535974,314.221268 526.288185,312.921401 524.675232,312.459804 C523.062279,311.998206 521.329208,312.445005 520.12885,313.631896 L520.110145,313.631896 Z" id="Path" fill="#6C63FF"></path>
            <path d="M504.303432,319.264223 C503.695802,322.027867 506.79372,331.177007 506.79372,331.177007 C506.79372,331.177007 513.437808,324.290887 514.045438,321.527244 C514.654717,318.76379 512.964469,316.016973 510.270162,315.392058 C507.575855,314.767142 504.897769,316.500769 504.28849,319.264223 L504.303432,319.264223 Z" id="Path" fill="#6C63FF"></path>
            <path d="M485.581996,335.974128 C486.412692,338.718744 493.595469,345.100365 493.595469,345.100365 C493.595469,345.100365 495.938328,335.569439 495.087736,332.824823 C494.54838,331.049997 493.142207,329.710116 491.398908,329.309902 C489.65561,328.909688 487.840033,329.509942 486.63609,330.884554 C485.432147,332.259167 485.022744,334.199301 485.562099,335.974128 L485.581996,335.974128 Z" id="Path" fill="#6C63FF"></path>
            <path d="M476.41944,352.860019 C476.796508,355.640673 482.824633,363.001825 482.824633,363.001825 C482.824633,363.001825 486.669734,354.250346 486.297628,351.474747 C486.054789,349.677538 484.889484,348.148863 483.240671,347.464561 C481.591858,346.780259 479.710032,347.04429 478.304058,348.157197 C476.898083,349.270104 476.181562,351.062809 476.424401,352.860019 L476.41944,352.860019 Z" id="Path" fill="#6C63FF"></path>
            <path d="M512.971471,338.136986 C510.183208,338.067664 502.235401,332.888294 502.235401,332.888294 C502.235401,332.888294 510.449474,328.124858 513.232713,328.19418 C516.018434,328.265282 518.218226,330.548695 518.146085,333.294325 C518.073945,336.039955 515.757191,338.208088 512.971471,338.136986 Z" id="Path" fill="#6C63FF"></path>
            <path d="M500.276437,356.765541 C497.538383,355.874597 491.29562,348.552928 491.29562,348.552928 C491.29562,348.552928 500.928354,346.412671 503.666408,347.308592 C505.436507,347.886518 506.749083,349.321785 507.109702,351.073743 C507.470321,352.825701 506.824196,354.628186 505.414716,355.802218 C504.005237,356.976251 502.046535,357.343467 500.276437,356.765541 Z" id="Path" fill="#6C63FF"></path>
            <path d="M486.372088,374.871707 C483.604032,374.434835 476.377737,368.239195 476.377737,368.239195 C476.377737,368.239195 485.22337,364.590321 488.016728,365.027193 C490.787771,365.465879 492.671644,368.025275 492.224476,370.743762 C491.777308,373.46225 489.168433,375.310393 486.39739,374.871707 L486.372088,374.871707 Z" id="Path" fill="#6C63FF"></path>
            <path d="M309.919952,46.3836279 C283.076655,45.4464452 257.51138,36.7433376 233.10264,27.2201951 C208.6939,17.6970527 184.508692,7.14398553 158.306835,2.12615342 C141.459314,-1.11981775 122.186954,-1.57864675 108.609805,7.49542902 C95.5526113,16.2034178 91.3249378,31.2764388 89.0556005,45.2658423 C87.3450935,55.7896225 86.3391988,66.8649737 90.9993584,76.7151539 C94.2502935,83.5487774 100.018395,89.3085458 104.007958,95.859062 C117.88639,118.654078 108.075272,146.764676 93.0354448,169.027645 C85.9796036,179.468445 77.7963828,189.426011 72.3490012,200.545293 C66.9016197,211.664574 64.3893126,224.394639 69.1515195,235.733573 C73.8748512,246.96024 85.1243501,255.414408 97.3117122,261.349898 C122.065469,273.411244 151.250994,276.862224 179.683313,278.814688 C242.65135,283.144276 305.954686,281.255267 369.087943,279.390664 C392.456772,278.69754 415.92279,277.994653 438.907727,274.367951 C451.673357,272.352032 464.852036,269.149992 474.114042,261.427997 C485.878637,251.626628 488.794274,235.025805 480.917195,222.735045 C467.694782,202.117026 431.137555,196.99669 421.894986,174.870393 C416.812059,162.6919 422.035908,149.127157 429.427048,137.832154 C445.283253,113.597196 471.864142,92.3397459 473.268507,64.6440461 C474.240386,45.6075235 461.450459,26.5710009 441.682441,17.5701425 C420.971701,8.13974209 392.252678,9.32586389 376.974741,24.9406936 C361.269177,41.0241146 333.61922,47.2085439 309.919952,46.3836279 Z" id="Path" fill="#6C63FF" opacity="0.1"></path>
            <path d="M289.406934,155.145985 L277.472628,155.145985 C277.480448,154.136177 277.538117,153.127575 277.64538,152.124608 C278.019677,148.555804 279.171359,142.765708 282.741574,140.049627 C286.076653,137.512513 290.419455,141.339239 288.715925,145.387043 L288.672737,145.497581 C288.034513,146.960896 288.015318,148.782144 288.22646,150.450744 C288.450463,152.061251 288.846686,153.637197 289.406934,155.145985 Z" id="Path" fill="#6C63FF"></path>
            <path d="M289.406934,154.15146 L277.472628,154.15146 C277.480448,153.308492 277.538117,152.46653 277.64538,151.629273 C281.01351,150.47298 284.614616,149.996347 288.202467,150.231964 C288.43419,151.577296 288.838475,152.892892 289.406934,154.15146 Z" id="Path" fill="#000000" opacity="0.1"></path>
            <path d="M297.397143,166.890968 C294.253692,169.443264 289.857735,169.482156 285.359434,168.388315 C276.148393,166.142294 266.532847,159.112542 266.532847,159.112542 C267.187511,158.388212 267.890937,157.709265 268.638227,157.080428 C272.429862,153.832935 281.119431,148.091484 292.752634,150.945194 C295.597648,151.59691 298.103695,153.26809 299.794937,155.641419 C301.719996,158.451375 302.723951,162.56908 297.397143,166.890968 Z" id="Path" fill="#6C63FF"></path>
            <path d="M294.379562,161.686168 C294.379562,161.686168 286.850372,157.349603 276.478102,163.10219" id="Path" fill="#000000" opacity="0.1"></path>
            <path d="M96.4689781,213.165415 C96.4689781,213.165415 73.8826193,195.64939 72.7469651,211.529734 C71.6113109,227.410079 77.294456,242.312945 82.1685084,243.619524 C87.0425608,244.926104 96.4689781,213.165415 96.4689781,213.165415 Z" id="Path" fill="#6C63FF"></path>
            <path d="M96.4689781,213.165415 C96.4689781,213.165415 73.8826193,195.64939 72.7469651,211.529734 C71.6113109,227.410079 77.294456,242.312945 82.1685084,243.619524 C87.0425608,244.926104 96.4689781,213.165415 96.4689781,213.165415 Z" id="Path" fill="#000000" opacity="0.2"></path>
            <path d="M81.5510949,218.79562 C81.5510949,218.79562 82.1142711,232.711464 86.8935191,230.489606 C91.672767,228.267749 84.6511476,219.41774 81.5510949,218.79562 Z" id="Path" fill="#000000" opacity="0.1"></path>
            <path d="M151.656672,336.099611 C151.128453,338.31471 150.313898,340.451926 149.233472,342.457557 C148.957228,342.97973 148.656751,343.516409 148.327196,344.062757 C143.039775,352.833338 130.817158,356.474048 130.817158,354.540072 C130.817158,352.606096 129.610405,347.606768 126.537788,349.05725 C123.465171,350.507732 118.78355,350.188626 118.78355,350.188626 C110.326585,349.545579 111.756272,341.229482 114.557491,334.184975 C115.489134,331.86938 116.553879,329.609321 117.746421,327.416059 C118.802936,325.482083 119.592899,324.215328 119.592899,324.215328 L151.903838,329.374209 C151.903838,329.374209 152.625951,331.917388 151.656672,336.099611 Z" id="Path" fill="#6C63FF"></path>
            <path d="M285.428832,169.069343 C276.183838,166.896437 266.532847,160.095524 266.532847,160.095524 C267.189924,159.394774 267.895943,158.737929 268.645988,158.129562 C270.054749,158.844457 271.470032,159.604818 272.891837,160.410643 C277.348946,162.905124 281.547139,165.804615 285.428832,169.069343 Z" id="Path" fill="#000000" opacity="0.1"></path>
            <path d="M152.650729,337.144161 C143.786063,336.356 130.947244,334.190991 118.34854,328.430609 C119.416808,326.484533 120.215559,325.209854 120.215559,325.209854 L152.885944,330.40101 C152.885944,330.40101 153.630792,332.935773 152.650729,337.144161 Z" id="Path" fill="#000000" opacity="0.1"></path>
            <path d="M288.118896,294.761029 C288.118896,294.761029 287.53319,305.203998 281.646845,317.005482 C277.114318,326.286995 270.122808,334.143925 261.435108,339.719062 C261.435108,339.719062 256.232086,343.955868 255.905067,332.227686 C255.905067,332.227686 253.625694,329.784314 238.006868,340.461847 C238.006868,340.461847 228.581883,346.228204 231.173632,322.170769 C231.173632,322.170769 231.173632,322.141449 231.173632,322.126788 C231.173632,322.112128 230.939349,322.278277 230.509832,322.537275 L230.480546,322.537275 C229.367705,323.221419 227.005358,324.623914 224.193969,326.036183 C219.044637,328.626156 212.37247,331.260111 209.063231,329.598618 C208.303254,335.68761 206.426823,341.583762 203.528309,346.990536 C200.248356,352.967022 195.07462,358.811566 186.972354,361.450408 C182.806777,362.78769 178.244036,361.67395 175.160616,358.567229 L174.233249,357.638748 C174.233249,357.638748 167.072993,362.525491 163.495306,360.893319 C159.917618,359.261147 156.984207,354.706703 161.865091,346.233091 C161.865091,346.233091 162.123777,345.5294 162.441035,344.498297 C163.236619,341.883889 164.393388,337.168183 162.519129,336.459605 C162.519129,336.459605 86.6994894,340.368999 76.6155848,272.931949 C66.5316801,205.494898 133.23383,180.738659 152.103324,183.343293 C152.103324,183.343293 202.215352,120.143048 271.523893,160.864276 C340.832434,201.585504 288.118896,294.761029 288.118896,294.761029 Z" id="Path" fill="#6C63FF"></path>
            <path d="M153.156934,182.992701 C153.156934,182.992701 235.079484,182.674529 229.458867,288.412409" id="Path" stroke="#000000" opacity="0.1"></path>
            <path d="M148.184307,343.042971 C147.908471,343.540861 147.60844,344.05258 147.279374,344.57352 C141.999793,352.936221 129.795298,356.407618 129.795298,354.563582 C129.795298,352.719547 128.590334,347.952715 125.522273,349.335742 C122.454212,350.718769 117.779532,350.414503 117.779532,350.414503 C109.335106,349.801361 110.762673,341.872009 113.559738,335.155109 C121.476691,338.939992 135.795922,344.578131 148.184307,343.042971 Z" id="Path" fill="#000000" opacity="0.2"></path>
            <path d="M204.872263,345.800976 C201.553911,352.250893 196.319606,358.558415 188.122487,361.406293 C183.908144,362.849509 179.291987,361.647544 176.17247,358.294723 L175.234245,357.292692 C175.234245,357.292692 167.990165,362.56654 164.370593,360.805075 C160.751022,359.043609 157.78327,354.128383 162.721293,344.98353 C162.721293,344.98353 162.983009,344.224096 163.30398,343.111314 C169.757977,345.542558 186.853415,350.716203 204.872263,345.800976 Z" id="Path" fill="#000000" opacity="0.2"></path>
            <path d="M231.724453,322.226277 C261.439896,307.291445 266.532847,295.374088 266.532847,295.374088" id="Path" fill="#000000" opacity="0.1"></path>
            <path d="M283.439781,315.264599 C278.836839,324.855196 271.736712,332.973771 262.914043,338.734566 C262.914043,338.734566 257.63019,343.112463 257.29809,330.993719 C257.29809,330.993719 254.983306,328.46898 239.121833,339.502087 C239.121833,339.502087 229.550425,345.460469 232.182438,320.601895 L240.113175,316.12301 C257.203913,325.802856 274.373958,319.900018 283.439781,315.264599 Z" id="Path" fill="#000000" opacity="0.2"></path>
            <path d="M162.107664,193.236679 C162.107664,193.236679 178.538551,167.540848 190.939038,175.610327 C203.339525,183.679806 188.68704,213.822993 188.68704,213.822993 C188.68704,213.822993 164.359662,213.328842 162.107664,193.236679 Z" id="Path" fill="#6C63FF"></path>
            <path d="M162.107664,193.236679 C162.107664,193.236679 178.538551,167.540848 190.939038,175.610327 C203.339525,183.679806 188.68704,213.822993 188.68704,213.822993 C188.68704,213.822993 164.359662,213.328842 162.107664,193.236679 Z" id="Path" fill="#000000" opacity="0.2"></path>
            <path d="M188.959854,184.981752 C188.959854,184.981752 166.483196,196.197936 173.361546,202.755807 C180.239897,209.313678 188.959854,184.981752 188.959854,184.981752 Z" id="Path" fill="#000000" opacity="0.1"></path>
            <path d="M246.642336,156.409851 C241.05,156.876485 235.512956,157.858217 230.102018,159.342492 L229.950092,159.386482 C222.285187,161.512647 213.581304,165.090469 207.597385,171.058394 C207.597385,171.058394 193.71332,165.193112 189.95438,166.170659 C189.95438,166.170659 201.2263,152.509438 231.537963,152.162409 L231.611475,152.162409 C231.611475,152.162409 239.452811,152.827141 246.642336,156.409851 Z" id="Path"></path>
            <ellipse id="Oval" fill="#000000" opacity="0.1" transform="translate(130.243199, 263.604464) rotate(-13.000000) translate(-130.243199, -263.604464) " cx="130.243199" cy="263.604464" rx="30.4152973" ry="25.2123163"></ellipse>
            <ellipse id="Oval" fill="#6C63FF" transform="translate(130.243247, 262.629131) rotate(-13.000000) translate(-130.243247, -262.629131) " cx="130.243247" cy="262.629131" rx="30.4152973" ry="25.2123163"></ellipse>
            <ellipse id="Oval" fill="#000000" opacity="0.2" transform="translate(130.243247, 262.629131) rotate(-13.000000) translate(-130.243247, -262.629131) " cx="130.243247" cy="262.629131" rx="30.4152973" ry="25.2123163"></ellipse>
            <path d="M117.354015,262.554745 C117.354015,262.554745 117.65925,273.009746 120.24236,269.950015 C122.82547,266.890284 120.392699,262.543953 117.354015,262.554745 Z" id="Path" fill="#000000" opacity="0.1"></path>
            <path d="M134.260949,254.59872 C134.260949,254.59872 134.561964,265.053492 137.147959,261.993822 C139.733953,258.934153 137.298466,254.566285 134.260949,254.59872 Z" id="Path" fill="#000000" opacity="0.1"></path>
            <path d="M160.118613,309.41016 C160.118613,309.41016 167.28794,314.800618 176.031022,307.308394" id="Path" fill="#000000" opacity="0.1"></path>
            <path d="M190.948905,166.170659 C194.633935,165.193112 208.245002,171.058394 208.245002,171.058394 C214.111261,165.090469 222.658415,161.512647 230.158195,159.386482 L231.724453,152.162409 C201.979971,152.509438 190.948905,166.170659 190.948905,166.170659 Z" id="Path" fill="#000000" opacity="0.15"></path>
            <path d="M231.278316,152.162409 L229.735401,160.118613 C235.266272,158.473898 240.926045,157.386046 246.642336,156.868972 C239.293455,152.882746 231.278316,152.162409 231.278316,152.162409 Z" id="Path" fill="#000000" opacity="0.3"></path>
            <polygon id="Path" fill="#000000" opacity="0.15" points="231.636441 152.162409 229.735401 160.118613 229.917291 160.070165 231.724453 152.162409"></polygon>
            <g id="Group" opacity="0.1" transform="translate(76.578467, 183.987226)" fill="#FFFFFF">
                <path d="M89.3867229,164.95871 C89.3867229,164.95871 89.6440137,164.260308 89.9595591,163.236955 C90.7508498,160.642197 91.9013768,155.961932 90.0372318,155.25868 C90.0372318,155.25868 89.1731229,155.30233 87.6099597,155.29748 C87.4397369,157.006764 87.0865733,158.692888 86.5565236,160.326946 C86.2409782,161.350299 85.9836874,162.048701 85.9836874,162.048701 C81.1291432,170.458627 84.0418697,174.983691 87.6051052,176.598746 L87.7944324,176.666646 C86.3623418,174.217389 86.2458328,170.400427 89.3867229,164.95871 Z" id="Path"></path>
                <path d="M4.59725338,92.2084852 C-5.43708954,25.2782782 63.0459659,-1.92060594 81.8136339,0.683852115 L76.2794535,0.402551245 C57.5117855,-2.18250675 -8.8352705,22.3876692 1.19907242,89.3178762 C4.35452617,110.362091 13.9762328,124.402885 25.680539,133.768264 C15.5345415,124.456235 7.4420163,111.176894 4.59725338,92.2084852 Z" id="Path"></path>
                <path d="M158.316396,141.077236 C158.316396,141.077236 158.316396,141.048136 158.316396,141.033586 C158.316396,141.019036 158.083378,141.183937 157.656178,141.440987 L157.627051,141.440987 C156.971688,141.838689 155.879415,142.493441 154.520143,143.250043 C154.034688,154.283827 156.894015,156.674885 159.141669,156.883435 C158.000851,154.308077 157.403742,149.579313 158.316396,141.077236 Z" id="Path"></path>
                <path d="M182.919227,151.058567 C182.919227,151.058567 182.336681,150.442615 179.763773,151.204068 C180.4337,156.015282 182.288136,156.539084 183.608572,156.252933 C183.155918,154.558347 182.92422,152.812451 182.919227,151.058567 Z" id="Path"></path>
            </g>
            <path d="M163.10219,336.149635 C163.10219,336.149635 205.598674,333.499224 209.844891,329.187956" id="Path" fill="#000000" opacity="0.1"></path>
            <ellipse id="Oval" fill="#FBD56F" cx="265.041058" cy="324.712591" rx="18.3987226" ry="19.3932482"></ellipse>
            <ellipse id="Oval" fill="#000000" opacity="0.1" cx="265.041058" cy="324.712591" rx="18.3987226" ry="19.3932482"></ellipse>
            <ellipse id="Oval" fill="#FBD56F" cx="268.024635" cy="325.209854" rx="18.3987226" ry="18.8959854"></ellipse>
            <path d="M276.017401,342.669491 L274.14232,341.572868 C274.14232,341.572868 273.264725,345.42368 273.552461,348.172816 C273.608079,348.73865 273.989842,349.209339 274.511581,349.355349 C278.827624,350.482293 299.362394,355.288227 313.490238,348.516458 C313.907117,348.317368 314.192067,347.899675 314.238352,347.419836 C314.41579,345.731947 313.801953,342.250045 313.557377,341.572868 C313.044247,340.11239 276.017401,342.669491 276.017401,342.669491 Z" id="Path" fill="#FBD56F"></path>
            <path d="M276.017401,342.669491 L274.14232,341.572868 C274.14232,341.572868 273.264725,345.42368 273.552461,348.172816 C273.608079,348.73865 273.989842,349.209339 274.511581,349.355349 C278.827624,350.482293 299.362394,355.288227 313.490238,348.516458 C313.907117,348.317368 314.192067,347.899675 314.238352,347.419836 C314.41579,345.731947 313.801953,342.250045 313.557377,341.572868 C313.044247,340.11239 276.017401,342.669491 276.017401,342.669491 Z" id="Path" fill="#000000" opacity="0.1"></path>
            <ellipse id="Oval" fill="#FBD56F" cx="293.385036" cy="341.122263" rx="19.8905109" ry="4.97262774"></ellipse>
            <path d="M283.968905,334.713331 L282.098549,333.616677 C282.098549,333.616677 281.22092,337.467599 281.508667,340.216813 C281.563511,340.781947 281.946038,341.251558 282.467824,341.394326 C286.784031,342.526356 307.31958,347.332428 321.447961,340.560465 C321.863577,340.359729 322.147934,339.942909 322.196104,339.463812 C322.368752,337.775875 321.754891,334.293873 321.510306,333.616677 C320.977974,332.156157 283.968905,334.713331 283.968905,334.713331 Z" id="Path" fill="#FBD56F"></path>
            <path d="M283.968905,334.713331 L282.098549,333.616677 C282.098549,333.616677 281.22092,337.467599 281.508667,340.216813 C281.563511,340.781947 281.946038,341.251558 282.467824,341.394326 C286.784031,342.526356 307.31958,347.332428 321.447961,340.560465 C321.863577,340.359729 322.147934,339.942909 322.196104,339.463812 C322.368752,337.775875 321.754891,334.293873 321.510306,333.616677 C320.977974,332.156157 283.968905,334.713331 283.968905,334.713331 Z" id="Path" fill="#000000" opacity="0.1"></path>
            <ellipse id="Oval" fill="#FBD56F" cx="301.341241" cy="333.166058" rx="19.8905109" ry="4.97262774"></ellipse>
            <path d="M289.940557,326.757082 L288.065626,325.66046 C288.065626,325.66046 287.188101,329.511272 287.475814,332.260408 C287.531428,332.826242 287.91316,333.29693 288.434858,333.44294 C292.750557,334.569884 313.288486,339.375819 327.410411,332.60405 C327.827207,332.403879 328.11323,331.987249 328.16326,331.507427 C328.335888,329.819539 327.7221,326.337637 327.477544,325.66046 C326.964455,324.199981 289.940557,326.757082 289.940557,326.757082 Z" id="Path" fill="#FBD56F"></path>
            <path d="M289.940557,326.757082 L288.065626,325.66046 C288.065626,325.66046 287.188101,329.511272 287.475814,332.260408 C287.531428,332.826242 287.91316,333.29693 288.434858,333.44294 C292.750557,334.569884 313.288486,339.375819 327.410411,332.60405 C327.827207,332.403879 328.11323,331.987249 328.16326,331.507427 C328.335888,329.819539 327.7221,326.337637 327.477544,325.66046 C326.964455,324.199981 289.940557,326.757082 289.940557,326.757082 Z" id="Path" fill="#000000" opacity="0.1"></path>
            <ellipse id="Oval" fill="#FBD56F" cx="307.308394" cy="326.20438" rx="19.8905109" ry="4.97262774"></ellipse>
            <path d="M281.983251,316.817923 L280.108031,315.716501 C280.108031,315.716501 279.235166,319.571479 279.518128,322.31493 C279.575066,322.880039 279.956305,323.349938 280.47732,323.497191 C284.793683,324.623876 305.329984,329.428705 319.454086,322.663546 C319.871578,322.464236 320.157945,322.047265 320.207051,321.567176 C320.379706,319.879675 319.765823,316.398574 319.521229,315.716501 C319.012857,314.251306 281.983251,316.817923 281.983251,316.817923 Z" id="Path" fill="#FBD56F"></path>
            <path d="M281.983251,316.817923 L280.108031,315.716501 C280.108031,315.716501 279.235166,319.571479 279.518128,322.31493 C279.575066,322.880039 279.956305,323.349938 280.47732,323.497191 C284.793683,324.623876 305.329984,329.428705 319.454086,322.663546 C319.871578,322.464236 320.157945,322.047265 320.207051,321.567176 C320.379706,319.879675 319.765823,316.398574 319.521229,315.716501 C319.012857,314.251306 281.983251,316.817923 281.983251,316.817923 Z" id="Path" fill="#000000" opacity="0.1"></path>
            <ellipse id="Oval" fill="#FBD56F" cx="299.35219" cy="316.259124" rx="19.8905109" ry="4.97262774"></ellipse>
            <path d="M298.886788,309.857992 L297.016432,308.756775 C297.016432,308.756775 296.138804,312.611035 296.426551,315.353976 C296.480841,315.920174 296.863179,316.391358 297.385708,316.536016 C301.701914,317.662491 322.237463,322.466425 336.361049,315.702526 C336.777266,315.501633 337.063028,315.085607 337.113987,314.60636 C337.286635,312.919174 336.672775,309.43367 336.42819,308.756775 C335.915041,307.286801 298.886788,309.857992 298.886788,309.857992 Z" id="Path" fill="#FBD56F"></path>
            <path d="M298.886788,309.857992 L297.016432,308.756775 C297.016432,308.756775 296.138804,312.611035 296.426551,315.353976 C296.480841,315.920174 296.863179,316.391358 297.385708,316.536016 C301.701914,317.662491 322.237463,322.466425 336.361049,315.702526 C336.777266,315.501633 337.063028,315.085607 337.113987,314.60636 C337.286635,312.919174 336.672775,309.43367 336.42819,308.756775 C335.915041,307.286801 298.886788,309.857992 298.886788,309.857992 Z" id="Path" fill="#000000" opacity="0.1"></path>
            <ellipse id="Oval" fill="#FBD56F" cx="316.259124" cy="309.297445" rx="19.8905109" ry="4.97262774"></ellipse>
            <path d="M287.950404,304.881869 L286.075184,303.780241 C286.075184,303.780241 285.202319,307.635938 285.485281,310.3799 C285.542219,310.945113 285.923458,311.4151 286.444473,311.562381 C290.760837,312.689275 311.297137,317.494998 325.421239,310.72858 C325.838731,310.529233 326.125098,310.112184 326.174205,309.632006 C326.346859,307.944191 325.732976,304.457389 325.488382,303.780241 C324.980011,302.319827 287.950404,304.881869 287.950404,304.881869 Z" id="Path" fill="#FBD56F"></path>
            <path d="M287.950404,304.881869 L286.075184,303.780241 C286.075184,303.780241 285.202319,307.635938 285.485281,310.3799 C285.542219,310.945113 285.923458,311.4151 286.444473,311.562381 C290.760837,312.689275 311.297137,317.494998 325.421239,310.72858 C325.838731,310.529233 326.125098,310.112184 326.174205,309.632006 C326.346859,307.944191 325.732976,304.457389 325.488382,303.780241 C324.980011,302.319827 287.950404,304.881869 287.950404,304.881869 Z" id="Path" fill="#000000" opacity="0.1"></path>
            <ellipse id="Oval" fill="#FBD56F" cx="305.319343" cy="304.324818" rx="19.8905109" ry="4.97262774"></ellipse>
            <path d="M294.908686,294.936613 L293.03833,293.834986 C293.03833,293.834986 292.160701,297.690682 292.448449,300.434644 C292.502738,301.001054 292.885076,301.472413 293.407605,301.617125 C297.723812,302.744019 318.259361,307.549743 332.387742,300.783324 C332.803995,300.583419 333.088652,300.166189 333.135885,299.68675 C333.308533,297.998936 332.694673,294.517186 332.450087,293.834986 C331.941734,292.374571 294.908686,294.936613 294.908686,294.936613 Z" id="Path" fill="#FBD56F"></path>
            <path d="M294.908686,294.936613 L293.03833,293.834986 C293.03833,293.834986 292.160701,297.690682 292.448449,300.434644 C292.502738,301.001054 292.885076,301.472413 293.407605,301.617125 C297.723812,302.744019 318.259361,307.549743 332.387742,300.783324 C332.803995,300.583419 333.088652,300.166189 333.135885,299.68675 C333.308533,297.998936 332.694673,294.517186 332.450087,293.834986 C331.941734,292.374571 294.908686,294.936613 294.908686,294.936613 Z" id="Path" fill="#000000" opacity="0.1"></path>
            <ellipse id="Oval" fill="#FBD56F" cx="312.281022" cy="294.379562" rx="19.8905109" ry="4.97262774"></ellipse>
            <path d="M298.890185,283.996832 L297.014965,282.895205 C297.014965,282.895205 296.1421,286.750901 296.425062,289.494863 C296.482,290.060077 296.863239,290.530063 297.384254,290.677344 C301.700618,291.804238 322.236918,296.609962 336.36102,289.843543 C336.778512,289.644196 337.064879,289.227148 337.113986,288.746969 C337.28664,287.059155 336.672757,283.577405 336.428164,282.895205 C335.914996,281.43479 298.890185,283.996832 298.890185,283.996832 Z" id="Path" fill="#FBD56F"></path>
            <path d="M298.890185,283.996832 L297.014965,282.895205 C297.014965,282.895205 296.1421,286.750901 296.425062,289.494863 C296.482,290.060077 296.863239,290.530063 297.384254,290.677344 C301.700618,291.804238 322.236918,296.609962 336.36102,289.843543 C336.778512,289.644196 337.064879,289.227148 337.113986,288.746969 C337.28664,287.059155 336.672757,283.577405 336.428164,282.895205 C335.914996,281.43479 298.890185,283.996832 298.890185,283.996832 Z" id="Path" fill="#000000" opacity="0.1"></path>
            <ellipse id="Oval" fill="#FBD56F" cx="316.259124" cy="283.439781" rx="19.8905109" ry="4.97262774"></ellipse>
            <path d="M332.705357,344.662891 L330.830276,343.561263 C330.830276,343.561263 329.952681,347.41696 330.240417,350.160922 C330.296035,350.726731 330.677798,351.197399 331.199538,351.343402 C335.51558,352.470297 356.05035,357.27602 370.178195,350.509602 C370.594528,350.307169 370.87882,349.888537 370.926309,349.407974 C371.103746,347.72016 370.489909,344.23841 370.245333,343.561263 C369.732204,342.100849 332.705357,344.662891 332.705357,344.662891 Z" id="Path" fill="#FBD56F"></path>
            <path d="M332.705357,344.662891 L330.830276,343.561263 C330.830276,343.561263 329.952681,347.41696 330.240417,350.160922 C330.296035,350.726731 330.677798,351.197399 331.199538,351.343402 C335.51558,352.470297 356.05035,357.27602 370.178195,350.509602 C370.594528,350.307169 370.87882,349.888537 370.926309,349.407974 C371.103746,347.72016 370.489909,344.23841 370.245333,343.561263 C369.732204,342.100849 332.705357,344.662891 332.705357,344.662891 Z" id="Path" fill="#000000" opacity="0.1"></path>
            <ellipse id="Oval" fill="#FBD56F" cx="350.072993" cy="343.111314" rx="19.8905109" ry="4.97262774"></ellipse>
            <path d="M339.665733,335.712161 L337.790512,334.610533 C337.790512,334.610533 336.917648,338.46623 337.200609,341.210192 C337.257548,341.775405 337.638787,342.245392 338.159801,342.392673 C342.476165,343.519567 363.012466,348.32529 377.136568,341.558872 C377.55406,341.359525 377.840427,340.942476 377.889533,340.462298 C378.062188,338.774483 377.448305,335.287681 377.203711,334.610533 C376.695339,333.150119 339.665733,335.712161 339.665733,335.712161 Z" id="Path" fill="#FBD56F"></path>
            <path d="M339.665733,335.712161 L337.790512,334.610533 C337.790512,334.610533 336.917648,338.46623 337.200609,341.210192 C337.257548,341.775405 337.638787,342.245392 338.159801,342.392673 C342.476165,343.519567 363.012466,348.32529 377.136568,341.558872 C377.55406,341.359525 377.840427,340.942476 377.889533,340.462298 C378.062188,338.774483 377.448305,335.287681 377.203711,334.610533 C376.695339,333.150119 339.665733,335.712161 339.665733,335.712161 Z" id="Path" fill="#000000" opacity="0.1"></path>
            <ellipse id="Oval" fill="#FBD56F" cx="357.034672" cy="333.166058" rx="19.8905109" ry="4.97262774"></ellipse>
            <path d="M332.700657,326.746633 L330.830301,325.648754 C330.830301,325.648754 329.952672,329.503978 330.240419,332.256264 C330.295263,332.822029 330.67779,333.292165 331.199576,333.435093 C335.515782,334.568387 356.051332,339.379828 370.179713,332.6003 C370.596608,332.400982 370.881569,331.982809 370.927855,331.502421 C371.100504,329.812599 370.486643,326.326707 370.242058,325.648754 C369.733705,324.216958 332.700657,326.746633 332.700657,326.746633 Z" id="Path" fill="#FBD56F"></path>
            <path d="M332.700657,326.746633 L330.830301,325.648754 C330.830301,325.648754 329.952672,329.503978 330.240419,332.256264 C330.295263,332.822029 330.67779,333.292165 331.199576,333.435093 C335.515782,334.568387 356.051332,339.379828 370.179713,332.6003 C370.596608,332.400982 370.881569,331.982809 370.927855,331.502421 C371.100504,329.812599 370.486643,326.326707 370.242058,325.648754 C369.733705,324.216958 332.700657,326.746633 332.700657,326.746633 Z" id="Path" fill="#000000" opacity="0.1"></path>
            <ellipse id="Oval" fill="#FBD56F" cx="350.072993" cy="326.20438" rx="19.8905109" ry="4.97262774"></ellipse>
            <path d="M349.612375,319.799192 L347.737232,318.699761 C347.737232,318.699761 346.859608,322.560435 347.147353,325.286212 C347.201643,325.854097 347.583979,326.326684 348.106506,326.471773 C352.422691,327.60667 372.958144,332.419846 387.086458,325.635801 C387.503351,325.436201 387.78831,325.017437 387.834597,324.53637 C388.007244,322.844159 387.398183,319.35334 387.153599,318.674428 C386.640452,317.265941 349.612375,319.799192 349.612375,319.799192 Z" id="Path" fill="#FBD56F"></path>
            <path d="M349.612375,319.799192 L347.737232,318.699761 C347.737232,318.699761 346.859608,322.560435 347.147353,325.286212 C347.201643,325.854097 347.583979,326.326684 348.106506,326.471773 C352.422691,327.60667 372.958144,332.419846 387.086458,325.635801 C387.503351,325.436201 387.78831,325.017437 387.834597,324.53637 C388.007244,322.844159 387.398183,319.35334 387.153599,318.674428 C386.640452,317.265941 349.612375,319.799192 349.612375,319.799192 Z" id="Path" fill="#000000" opacity="0.1"></path>
            <ellipse id="Oval" fill="#FBD56F" cx="366.979927" cy="319.242701" rx="19.8905109" ry="4.97262774"></ellipse>
            <path d="M336.678759,314.82313 L334.808403,313.726256 C334.808403,313.726256 333.930774,317.57795 334.218522,320.327715 C334.274699,320.892357 334.656662,321.361369 335.177678,321.505464 C339.493885,322.63772 360.029434,327.4397 374.157815,320.671436 C374.57471,320.4723 374.859671,320.054511 374.905958,319.574562 C375.078606,317.886287 374.464745,314.403588 374.22016,313.726256 C373.711807,312.265443 336.678759,314.82313 336.678759,314.82313 Z" id="Path" fill="#FBD56F"></path>
            <path d="M336.678759,314.82313 L334.808403,313.726256 C334.808403,313.726256 333.930774,317.57795 334.218522,320.327715 C334.274699,320.892357 334.656662,321.361369 335.177678,321.505464 C339.493885,322.63772 360.029434,327.4397 374.157815,320.671436 C374.57471,320.4723 374.859671,320.054511 374.905958,319.574562 C375.078606,317.886287 374.464745,314.403588 374.22016,313.726256 C373.711807,312.265443 336.678759,314.82313 336.678759,314.82313 Z" id="Path" fill="#000000" opacity="0.1"></path>
            <ellipse id="Oval" fill="#FBD56F" cx="354.051095" cy="313.275547" rx="19.8905109" ry="4.97262774"></ellipse>
            <path d="M344.639759,304.87752 L342.764607,303.780898 C342.764607,303.780898 341.886979,307.631709 342.174726,310.380846 C342.230346,310.94668 342.612124,311.417368 343.133883,311.563378 C347.450089,312.690322 367.985638,317.496257 382.109224,310.724488 C382.526069,310.524317 382.812126,310.107687 382.862162,309.627865 C383.03481,307.939977 382.42095,304.458074 382.176365,303.780898 C381.668012,302.320419 344.639759,304.87752 344.639759,304.87752 Z" id="Path" fill="#FBD56F"></path>
            <path d="M344.639759,304.87752 L342.764607,303.780898 C342.764607,303.780898 341.886979,307.631709 342.174726,310.380846 C342.230346,310.94668 342.612124,311.417368 343.133883,311.563378 C347.450089,312.690322 367.985638,317.496257 382.109224,310.724488 C382.526069,310.524317 382.812126,310.107687 382.862162,309.627865 C383.03481,307.939977 382.42095,304.458074 382.176365,303.780898 C381.668012,302.320419 344.639759,304.87752 344.639759,304.87752 Z" id="Path" fill="#000000" opacity="0.1"></path>
            <ellipse id="Oval" fill="#FBD56F" cx="362.007299" cy="304.324818" rx="19.8905109" ry="4.97262774"></ellipse>
            <path d="M349.607591,292.943213 L347.737235,291.846591 C347.737235,291.846591 346.859607,295.697403 347.147354,298.446539 C347.202974,299.012373 347.584751,299.483062 348.106511,299.629072 C352.422717,300.756015 372.958266,305.56195 387.086647,298.790181 C387.503542,298.591091 387.788503,298.173397 387.83479,297.693559 C388.007438,296.00567 387.393578,292.523768 387.148993,291.846591 C386.640639,290.386112 349.607591,292.943213 349.607591,292.943213 Z" id="Path" fill="#FBD56F"></path>
            <path d="M349.607591,292.943213 L347.737235,291.846591 C347.737235,291.846591 346.859607,295.697403 347.147354,298.446539 C347.202974,299.012373 347.584751,299.483062 348.106511,299.629072 C352.422717,300.756015 372.958266,305.56195 387.086647,298.790181 C387.503542,298.591091 387.788503,298.173397 387.83479,297.693559 C388.007438,296.00567 387.393578,292.523768 387.148993,291.846591 C386.640639,290.386112 349.607591,292.943213 349.607591,292.943213 Z" id="Path" fill="#000000" opacity="0.1"></path>
            <ellipse id="Oval" fill="#FBD56F" cx="366.979927" cy="293.385036" rx="19.8905109" ry="4.97262774"></ellipse>
            <path d="M198.142197,153.378085 C198.142197,142.764967 206.482834,134.144275 216.778387,134.144275 C217.787572,134.145311 218.794936,134.229438 219.790146,134.395794 C217.798517,133.648311 215.687115,133.265675 213.558236,133.266424 C203.267645,133.266424 194.927007,142.069591 194.927007,152.929296 C194.927007,161.086404 199.635672,168.07962 206.338945,171.058394 C206.661456,170.777285 207.063355,170.441926 207.539679,170.072045 C201.665711,166.542851 198.095252,160.200183 198.142197,153.378085 Z" id="Path" fill="#FBD56F"></path>
            <path d="M198.142197,153.378085 C198.142197,142.764967 206.482834,134.144275 216.778387,134.144275 C217.787572,134.145311 218.794936,134.229438 219.790146,134.395794 C217.798517,133.648311 215.687115,133.265675 213.558236,133.266424 C203.267645,133.266424 194.927007,142.069591 194.927007,152.929296 C194.927007,161.086404 199.635672,168.07962 206.338945,171.058394 C206.661456,170.777285 207.063355,170.441926 207.539679,170.072045 C201.665711,166.542851 198.095252,160.200183 198.142197,153.378085 Z" id="Path" fill="#000000" opacity="0.1"></path>
            <path d="M232.427065,152.807213 C232.425716,154.951076 232.084705,157.081854 231.416112,159.124088 C232.568599,158.852871 233.771633,158.630967 235.010052,158.374544 C235.469714,156.695228 235.702518,154.964523 235.702555,153.226366 C235.702555,143.669689 228.812906,135.750173 219.790146,134.260949 C227.154943,136.982974 232.427065,144.251571 232.427065,152.807213 Z" id="Path" fill="#FBD56F"></path>
            <path d="M197.911051,153.418436 C197.863739,160.221435 201.410863,166.546291 207.246191,170.063869 C210.72901,167.3011 218.408948,162.222916 230.739214,159.283173 C231.390801,157.247255 231.723137,155.123065 231.724453,152.985832 C231.724453,144.456645 226.586431,137.210524 219.408966,134.511663 C218.420879,134.345839 217.420726,134.261981 216.418765,134.260949 C206.191985,134.275697 197.911051,142.854043 197.911051,153.418436 Z" id="Path" fill="#FBD56F"></path>
            <path d="M468.597223,370.472639 C465.818197,370.375182 465.71617,369.293412 462.145219,367.427114 C460.124109,366.374581 457.063294,363.314438 454.779829,360.853654 L454.245401,360.273786 L455.217088,360.273786 C455.217088,360.273786 454.323136,352.413895 455.119919,350.528106 C455.916703,348.642317 455.319115,337.556607 455.319115,337.556607 C455.319115,337.556607 455.804959,329.10223 454.920724,327.138476 C454.036488,325.174721 455.217088,312.597922 455.217088,312.597922 C455.217088,312.597922 456.013872,305.127859 456.188776,289.895362 C456.363679,274.662865 447.443589,274.175581 447.443589,274.175581 C447.443589,274.175581 446.253272,274.082997 444.445934,273.907575 L443.901789,273.853974 C445.072672,271.417554 445.757712,269.556129 445.757712,269.556129 C445.757712,269.556129 444.266172,255.307946 443.86778,252.852035 C443.469388,250.396123 441.093612,240.255744 441.093612,240.255744 C441.093612,240.255744 439.407735,235.933535 438.411755,232.88801 C437.415776,229.842486 434.442412,226.304804 434.442412,226.304804 C434.442412,226.304804 429.098132,215.691759 427.592016,214.122705 C426.902118,213.396652 425.930431,212.475685 425.089921,211.686285 L424.652662,211.286712 C424.880177,210.180186 425.000578,209.054203 425.012186,207.924453 C425.012186,207.924453 419.449276,202.418144 419.050884,201.044003 C418.652493,199.669862 413.395664,194.558253 413.395664,194.558253 C413.395664,194.558253 410.412584,189.056817 407.040828,188.959361 C405.444577,188.866958 403.843334,188.914241 402.255268,189.100673 C402.950025,186.527814 403.771101,183.833133 404.504724,181.518534 C404.587318,181.260274 404.669911,181.03125 404.747646,180.763244 C407.445571,178.931978 409.563336,176.363171 410.849843,173.361401 C410.917861,173.200597 410.981021,173.039793 411.04418,172.874117 L411.151066,172.874117 C411.291084,172.871024 411.430708,172.857998 411.568892,172.835134 C412.681474,172.645093 413.62401,171.373282 413.109016,170.398714 C413.177229,170.513224 413.30157,170.582094 413.434531,170.579009 C413.803773,170.579009 414.255607,170.028378 414.343059,169.555713 C414.343059,169.472875 414.367351,169.390036 414.377068,169.307198 C414.386785,169.22436 414.411077,169.102539 414.425652,169.000209 C414.440228,168.89788 414.425652,168.805296 414.425652,168.707839 C414.425652,168.610382 414.425652,168.508052 414.425652,168.410596 C414.425652,168.313139 414.425652,168.220555 414.425652,168.127971 C414.425652,168.035387 414.425652,167.908693 414.425652,167.801491 C414.425652,167.694288 414.425652,167.630941 414.425652,167.54323 C414.425652,167.455519 414.425652,167.280097 414.396502,167.14853 C414.396502,167.094929 414.396502,167.041328 414.396502,166.987726 C414.338433,166.451064 414.231092,165.920923 414.075845,165.404054 C413.5317,163.576739 412.380251,161.764042 412.822368,159.912363 L412.822368,159.853889 C413.19161,158.392037 414.435369,157.368741 415.193286,156.082311 C415.266162,155.96049 415.329322,155.833796 415.392481,155.707103 C415.392481,155.682738 415.416774,155.658374 415.42649,155.638883 C415.475075,155.541426 415.513942,155.443969 415.55281,155.346512 L415.630545,155.156472 C415.664554,155.073633 415.688846,154.985922 415.717997,154.898211 C415.747147,154.8105 415.771439,154.74228 415.790873,154.659442 C415.810307,154.576604 415.829741,154.503511 415.849174,154.425546 C415.868608,154.34758 415.8929,154.240378 415.912334,154.142921 C415.931768,154.045464 415.912334,154.006481 415.946343,153.938262 C415.980352,153.870042 415.975494,153.723857 415.985211,153.616654 C415.994928,153.509452 415.985211,153.499706 415.985211,153.441232 C415.985211,153.382758 415.985211,153.202463 415.985211,153.080642 L415.985211,152.934457 C415.985211,152.80289 415.985211,152.666451 415.985211,152.534884 C415.985211,152.495901 415.985211,152.456918 415.985211,152.417936 C415.985211,152.276623 415.985211,152.135311 415.946343,151.993999 C415.946343,151.993999 415.946343,151.955016 415.946343,151.935525 C415.778225,150.700409 415.287079,149.531949 414.522821,148.548901 C412.760953,146.443049 410.112782,145.292888 407.376061,145.444902 C406.630887,145.530066 405.879378,145.544749 405.131463,145.488758 C403.882845,145.30359 402.828564,144.51419 401.837443,143.744281 L393.519799,137.317006 C392.591121,136.510979 391.526684,135.877354 390.37639,135.445835 C389.200648,135.085245 387.791702,135.207066 386.922042,136.069559 C385.362483,137.609376 386.353604,140.260201 385.731725,142.350649 C385.18758,144.163345 383.443401,145.391301 381.640921,146.000406 C379.838441,146.609511 377.904783,146.74595 376.04886,147.189379 C375.498513,147.2777 374.982728,147.515294 374.55732,147.876449 C374.078468,148.462351 373.845066,149.211801 373.906289,149.966897 C373.893713,151.818721 374.337657,153.644957 375.198633,155.283165 C375.548441,155.945872 375.971125,156.623196 376.345225,157.305394 L376.437535,157.475943 L376.558996,157.70984 C376.622155,157.841406 376.685315,157.9681 376.743616,158.094794 L376.816493,158.260471 L376.928237,158.538222 C376.928237,158.596696 376.971963,158.655171 376.991397,158.708772 C377.01083,158.762373 377.059415,158.92805 377.093424,159.035252 C377.288871,159.667796 377.307357,160.342027 377.146867,160.984388 C376.860219,162.041794 376.039143,162.855558 375.310378,163.679068 C374.720395,164.3259 374.299709,165.109489 374.086051,165.959557 C374.050402,166.159381 374.050402,166.363966 374.086051,166.563789 C374.086051,166.588154 374.086051,166.612518 374.086051,166.636882 C374.096767,166.681372 374.109739,166.725285 374.124919,166.768449 C374.135798,166.800146 374.148783,166.831077 374.163786,166.861033 C374.177988,166.896059 374.19421,166.930227 374.212371,166.963362 C374.249186,167.016448 374.291531,167.065452 374.33869,167.109547 L374.411567,167.163149 C374.451165,167.19302 374.493454,167.219121 374.537886,167.241114 L374.620479,167.280097 L374.824534,167.333698 L374.882835,167.333698 C374.989586,167.341299 375.096741,167.341299 375.203492,167.333698 L375.300661,167.333698 C375.401781,167.327018 375.502385,167.313999 375.601884,167.294715 L375.713628,167.294715 C375.877834,167.263775 376.040066,167.223096 376.199471,167.172894 C376.757597,167.005066 377.300463,166.789884 377.822189,166.52968 C377.822189,166.588154 377.822189,166.651501 377.822189,166.709975 C377.822189,166.768449 377.822189,166.919507 377.822189,167.021836 C377.849725,168.949531 378.213101,170.857552 378.895904,172.659712 C379.960305,175.467553 381.745245,177.943619 384.070139,179.837405 C384.040989,180.003081 384.011838,180.173631 383.977829,180.349053 C383.491985,182.702634 382.496006,185.065962 381.878984,184.885667 C381.274749,184.748687 380.657114,184.680039 380.037637,184.681007 L379.49835,184.681007 C378.936579,184.616978 378.369385,184.616978 377.807614,184.681007 C377.557009,184.699616 377.305318,184.66474 377.069132,184.578678 C375.464898,184.071066 373.759267,183.975562 372.108668,184.300926 C368.678611,185.007488 363.455792,186.29879 362.022553,187.84348 C359.836256,190.201935 356.678272,192.462932 353.087887,202.286577 C353.087887,202.286577 351.299983,208.28017 349.91047,209.06957 C350.216516,208.909294 350.531177,208.766138 350.853006,208.64076 C350.668168,208.965075 350.414375,209.244575 350.109666,209.459397 C350.61207,209.201987 351.133458,208.983691 351.669224,208.806437 C350.585792,215.209348 352.193935,233.52148 352.193935,233.52148 C352.193935,233.52148 350.901591,236.67908 352.587468,238.55025 C353.593165,239.656385 354.13731,241.386243 354.419099,242.614199 L354.171319,242.99428 C353.277366,244.383039 352.082191,246.195736 351.299983,247.194668 C349.91047,248.963509 350.304003,254.567274 350.304003,254.567274 C350.304003,254.567274 350.007638,257.218099 349.016517,258.202413 C348.025396,259.186726 348.219734,262.821865 348.219734,262.821865 L345.678771,272.416486 C345.678771,272.416486 343.293279,274.575154 343.293279,275.559468 C343.293279,276.543781 341.408205,279.292063 341.408205,279.292063 C341.408205,279.292063 338.527152,284.008972 341.408205,283.321901 C342.460475,283.01655 343.448347,282.52115 344.323267,281.860049 L344.323267,281.933142 C344.323267,282.103691 344.323267,282.279114 344.323267,282.459409 C344.240674,287.595382 344.809111,294.826676 348.579258,294.826676 C354.409382,294.826676 369.528838,301.799709 369.528838,301.799709 C372.604228,304.158164 376.772767,303.373637 376.772767,303.373637 C376.772767,303.373637 369.392801,310.726752 369.606573,313.777149 C369.820344,316.827547 365.438034,321.831953 365.438034,321.831953 L351.931579,348.267109 C352.007002,350.109364 352.333943,351.932546 352.903267,353.685707 L352.708929,353.851383 C347.520119,358.607275 347.068284,368.016728 347.068284,368.016728 L345.877967,372.831094 L363.946494,380.793314 C363.946494,380.793314 387.378735,381.280598 391.450105,380.2037 C395.521475,379.126803 394.627522,374.599934 389.263808,373.71795 C383.900094,372.835967 382.612608,370.472639 380.824703,369.395742 C379.619811,368.664816 375.339528,363.95278 372.681963,360.965729 C372.643096,360.917001 372.604228,360.878018 372.565361,360.834162 L373.182382,357.423175 C374.372699,356.833561 376.160604,350.937425 376.160604,350.937425 C376.160604,350.937425 376.160604,348.578971 377.350921,347.8919 C378.541238,347.20483 381.023899,340.129466 381.023899,340.129466 C381.023899,340.129466 386.36818,331.187806 386.091249,330.008578 C385.814318,328.829351 389.977998,322.835758 389.977998,322.835758 C389.977998,322.835758 397.02759,315.955309 396.726367,314.727353 C396.425144,313.499398 402.386446,307.208562 402.386446,307.208562 C404.539274,305.561891 406.333232,303.49065 407.65785,301.122385 L409.377737,300.83976 C417.175528,299.558203 430.12812,297.243604 431.575935,296.595517 C433.563035,295.713533 433.164643,299.645914 432.372718,302.983809 C431.580793,306.321705 430.983205,322.343602 431.886874,324.424304 C432.790544,326.505007 432.372718,329.833156 432.372718,329.833156 L431.182401,347.813935 L431.974326,351.64886 C431.974326,351.64886 429.292469,353.807528 430.385618,355.084212 C431.478766,356.360896 430.487645,361.867204 430.487645,361.867204 C430.579955,361.833094 430.691699,361.798985 430.81316,361.764875 C430.72085,361.97928 430.628539,362.20343 430.545946,362.432454 C429.005821,366.818009 429.890057,374.049304 429.890057,374.049304 L429.890057,379.750526 C429.890057,379.750526 457.393668,380.23781 463.44728,380.23781 C469.500892,380.23781 477.847687,377.289742 478.343248,374.931288 C478.838808,372.572833 471.376249,370.574969 468.597223,370.472639 Z M390.37639,268.177116 L388.578769,268.328174 C389.17256,268.239764 389.771356,268.18931 390.371532,268.177116 L390.37639,268.177116 Z M401.361316,192.75043 C401.613955,191.610185 401.920036,190.391975 402.260127,189.134783 L401.361316,192.75043 Z M404.762222,270.93027 C403.045069,271.609033 401.135094,271.609033 399.417941,270.93027 C399.417941,270.93027 399.51511,264.054693 400.311893,261.184591 C401.108677,258.314488 402.196967,253.124914 402.196967,253.124914 C402.196967,253.124914 403.090919,245.952094 403.984872,242.706782 C404.878824,239.461471 408.357465,221.383236 410.140511,220.204009 C411.923558,219.024782 412.919537,221.090866 412.919537,221.090866 C412.919537,221.090866 413.186751,221.090866 413.633727,221.037264 C413.721179,221.222432 413.813489,221.427092 413.920375,221.636624 C416.038654,225.929595 422.252594,234.749435 422.252594,234.749435 C424.096863,235.890228 425.658503,237.436503 426.819525,239.27143 C428.510261,242.117169 429.005821,248.802705 429.005821,248.802705 C429.005821,248.802705 432.780827,263.640502 434.563873,265.701713 C435.457826,266.734755 435.049717,267.348733 434.442412,267.70445 C433.173721,268.405309 432.097277,269.40962 431.308721,270.628154 C431.056082,271.0326 430.784009,271.476028 430.511937,271.953566 C429.826897,271.792763 429.219593,271.627086 428.709457,271.466282 C423.807294,269.81439 407.434362,269.751043 404.757363,270.954634 L404.762222,270.93027 Z" id="Shape" fill="url(#linearGradient-1)" fill-rule="nonzero"></path>
            <path d="M430.876937,374.962364 L430.876937,380.431783 C430.876937,380.431783 457.817999,380.903285 463.75194,380.903285 C469.685881,380.903285 477.857208,378.074275 478.343597,375.811067 C478.829986,373.547859 471.534157,371.661853 468.810381,371.567552 C466.086605,371.473252 465.989327,370.435948 462.48733,368.644242 C460.512592,367.635229 457.511575,364.697773 455.274187,362.33555 C453.547508,360.510839 452.27317,359.035039 452.27317,359.035039 C452.27317,359.035039 437.783654,358.752138 433.600713,361.015346 C432.627935,361.533997 431.971311,362.557156 431.518969,363.844355 C430.011165,368.04072 430.876937,374.962364 430.876937,374.962364 Z" id="Path" fill="#434175"></path>
            <path d="M430.629562,363.99635 C433.684002,363.147031 451.556139,362.822176 454.498175,362.767381 C452.763253,361.252697 451.482832,360.027642 451.482832,360.027642 C451.482832,360.027642 436.924151,359.792807 432.721242,361.671485 C431.753596,362.08636 431.084063,362.93568 430.629562,363.99635 Z" id="Path" fill="#000000" opacity="0.1"></path>
            <path d="M352.062044,273.386869 L353.635178,274.361792 L354.224494,274.71764 L356.513574,276.102031 C368.757717,283.482201 402.144194,303.497377 403.975458,303.336515 C404.462497,303.297518 405.894389,303.07816 407.871765,302.756435 L409.561788,302.478582 C417.208289,301.206307 429.915119,298.910363 431.337271,298.266913 C433.285424,297.389482 432.895794,301.289176 432.116532,304.603915 C431.337271,307.918655 430.752825,323.809906 431.629494,325.857245 C432.506163,327.904584 432.116532,331.219323 432.116532,331.219323 L430.94764,349.060421 L431.726902,352.862622 C431.726902,352.862622 429.096895,355.007453 430.168379,356.274854 C431.239863,357.542254 430.265787,363.001825 430.265787,363.001825 C433.382832,361.831917 454.515425,361.441947 454.515425,361.441947 C454.515425,361.441947 453.638756,353.642561 454.418017,351.790206 C455.197278,349.937852 454.612832,338.921218 454.612832,338.921218 C454.612832,338.921218 455.099871,330.536877 454.223202,328.58703 C453.346533,326.637183 454.515425,314.163039 454.515425,314.163039 C454.515425,314.163039 455.294686,306.753621 455.489501,291.647184 C455.684317,276.540746 446.917627,276.04841 446.917627,276.04841 C446.917627,276.04841 445.748735,275.955792 443.995397,275.785181 C440.522814,275.453707 434.741669,274.810257 430.874585,273.971823 C430.082535,273.810382 429.30037,273.603685 428.53193,273.352747 C423.758955,271.724625 407.68669,271.661255 405.061554,272.831163 C403.376303,273.505473 401.496531,273.505473 399.811281,272.831163 L397.76572,269.516423 L378.230613,271.183542 L376.1607,271.359029 L356.927557,273.001774 L355.602812,273.113891 L352.062044,273.386869 Z" id="Path" fill="#565387"></path>
            <path d="M429.798398,287.89683 C435.937333,290.857358 441.796986,280.359993 444.55292,274.438937 C440.795786,274.084508 434.540923,273.396498 430.356962,272.5 C427.579951,277.065885 423.912398,285.056183 429.798398,287.89683 Z" id="Path" fill="#000000" opacity="0.1"></path>
            <path d="M411.734299,222.382517 C411.858537,223.053296 412.096954,223.699128 412.439699,224.293327 C414.575911,228.548779 420.839465,237.298534 420.839465,237.298534 C422.702467,238.434433 424.276275,239.967872 425.442076,241.783088 C427.143042,244.610307 427.643325,251.239648 427.643325,251.239648 C427.643325,251.239648 431.445483,265.955809 433.246505,268.003106 C434.147016,269.026754 433.746788,269.636068 433.121434,269.991908 C431.843491,270.684429 430.75952,271.671969 429.964642,272.867872 C427.338152,276.981963 423.150776,285.132153 429.04412,287.930124 C437.048662,291.732246 444.55292,271.805228 444.55292,271.805228 C444.55292,271.805228 443.052068,257.669133 442.651841,255.231876 C442.251614,252.794618 439.855254,242.753117 439.855254,242.753117 C439.855254,242.753117 438.154289,238.463543 437.153721,235.441344 C436.153154,232.419144 433.151451,228.909493 433.151451,228.909493 C433.151451,228.909493 427.748385,218.385415 426.247533,216.82557 C425.552139,216.099267 424.576585,215.187733 423.746114,214.417559 C422.745546,213.525523 421.965104,212.828467 421.965104,212.828467 C421.965104,212.828467 411.634242,220.047624 411.734299,222.382517 Z" id="Path" fill="#EE8E9E"></path>
            <path d="M348.083942,373.084591 L365.641855,380.795354 C365.641855,380.795354 388.404435,381.271327 392.359789,380.224187 C396.315143,379.177046 395.446894,374.798094 390.237403,373.941343 C385.027913,373.084591 383.773776,370.799921 382.037279,369.75278 C380.865144,369.04834 376.707199,364.483758 374.126571,361.589842 C372.882082,360.195241 372.004186,359.209977 372.004186,359.209977 C372.004186,359.209977 368.627664,350.356879 359.274699,352.355965 C357.565089,352.724003 355.99029,353.547068 354.721219,354.735831 C349.680554,359.33849 349.241606,368.453373 349.241606,368.453373 L348.083942,373.084591 Z" id="Path" fill="#434175"></path>
            <path d="M355.04562,274.068314 L357.365186,275.435659 C369.772396,282.72496 403.603512,302.493696 405.459164,302.334814 C405.952689,302.296298 407.403651,302.079641 409.407362,301.761877 L411.119892,301.487445 L411.18405,301.376709 C412.181592,299.684397 412.941824,297.869142 413.444393,295.979546 C415.522132,288.281005 405.281495,282.387938 405.281495,282.387938 L403.109987,280.741346 C400.642364,276.687455 382.875476,272.855035 382.875476,272.855035 L380.585522,271.352881 L379.366516,270.553658 L379.040789,270.341816 L376.262246,268.521898 L362.349785,269.484817 L358.214049,272.075071 L357.779747,272.349503 L356.244885,273.312422 L355.04562,274.068314 Z" id="Path" fill="#000000" opacity="0.1"></path>
            <path d="M354.051095,355.734214 C357.833407,368.510605 373.644954,364.340298 373.644954,364.340298 L373.941606,362.718512 C372.666003,361.304276 371.766158,360.30514 371.766158,360.30514 C371.766158,360.30514 368.305219,351.327397 358.718418,353.354629 C356.969746,353.718209 355.355945,354.540989 354.051095,355.734214 Z" id="Path" fill="#000000" opacity="0.1"></path>
            <path d="M349.268236,296.627688 C355.014321,296.627688 369.812923,303.573024 369.812923,303.573024 C372.832052,305.920743 376.922485,305.13817 376.922485,305.13817 C376.922485,305.13817 369.715532,312.474792 369.910314,315.507262 C370.105097,318.539733 365.824751,323.528636 365.824751,323.528636 L352.579539,349.837763 C353.553452,368.516803 372.63727,363.337148 372.63727,363.337148 L373.4164,358.935175 C374.585095,358.348245 376.338138,352.478947 376.338138,352.478947 C376.338138,352.478947 376.338138,350.131228 377.506833,349.446477 C378.675528,348.761725 381.110309,341.718568 381.110309,341.718568 C381.110309,341.718568 386.369438,332.8168 386.077264,331.64294 C385.78509,330.469081 389.875523,324.506852 389.875523,324.506852 C389.875523,324.506852 396.790303,317.659338 396.498129,316.436568 C396.205955,315.213798 402.049431,308.953213 402.049431,308.953213 C404.163481,307.306562 405.921422,305.244626 407.216037,302.893163 C408.209963,301.170651 408.968319,299.321495 409.470645,297.395588 C411.121427,291.095875 404.873777,285.999368 402.375692,284.258143 C401.771866,283.832619 401.401779,283.607629 401.401779,283.607629 L399.259171,281.934879 C398.15378,280.061595 393.902652,278.232331 389.636914,276.799244 C386.549611,275.767225 383.433091,274.935742 381.44144,274.436851 C380.087701,274.123822 379.279354,273.918397 379.279354,273.918397 L377.019876,272.392379 L376.226138,271.859251 L375.500573,271.370143 L372.734661,269.516423 L366.628229,269.95173 L359.007363,270.49464 L354.931538,273.145606 L352.983713,274.407505 L345.372586,279.298586 C345.372586,279.298586 345.172934,281.181653 345.109629,283.70056 C345.109629,283.896203 345.109629,284.091846 345.109629,284.297272 C345.017108,289.432907 345.562499,296.627688 349.268236,296.627688 Z" id="Path" fill="#565387"></path>
            <path d="M378.914234,186.595341 L380.908561,193.986031 C380.908561,193.986031 384.422375,206.698017 384.802247,207.5849 C385.182119,208.471782 394.394011,217.439153 394.773882,217.636238 C395.153754,217.833323 400.168062,220.784672 400.168062,220.784672 C400.168062,220.784672 400.566928,204.525154 400.168062,199.80004 C400.134706,198.760557 400.217564,197.720564 400.414979,196.700877 C401.018026,192.995678 402.551758,187.561058 403.824329,183.373 C404.88797,179.869813 405.766423,177.238728 405.766423,177.238728 C405.766423,177.238728 383.54867,176.253302 384.308414,178.51978 C384.593317,179.377101 384.503098,180.805967 384.222942,182.244688 C383.748103,184.604782 382.798423,186.979657 382.219118,186.792426 C381.640826,186.658197 381.050047,186.590452 380.457463,186.590414 C379.659732,186.565778 378.914234,186.595341 378.914234,186.595341 Z" id="Path" fill="#EE8E9E"></path>
            <path d="M384.881387,181.685107 C390.286719,186.916544 398.012497,187.413512 403.883686,182.907449 C404.914818,179.112319 405.766423,176.261968 405.766423,176.261968 C405.766423,176.261968 384.227723,175.194421 384.964246,177.649779 C385.240442,178.578545 385.15298,180.126488 384.881387,181.685107 Z" id="Path" fill="#000000" opacity="0.1"></path>
            <path d="M412.715876,168.216924 C412.716842,169.995167 412.431466,171.762152 411.87053,173.451121 C411.729419,173.887067 411.566334,174.315712 411.38189,174.735438 C408.688795,181.061803 402.378839,185.120195 395.456622,184.978139 C388.534404,184.836083 382.399102,180.522293 379.972148,174.090857 C379.300841,172.311818 378.943792,170.431307 378.916687,168.531945 C378.916687,168.430169 378.916687,168.323546 378.916687,168.22177 C378.812839,162.163772 382.011909,156.521349 387.284868,153.462225 C392.557828,150.403102 399.084508,150.403102 404.357467,153.462225 C409.630427,156.521349 412.829497,162.163772 412.725649,168.22177 L412.715876,168.216924 Z" id="Path" fill="#EE8E9E"></path>
            <path d="M378.914234,185.989267 L380.85145,193.295985 C380.85145,193.295985 384.26464,205.863541 384.633634,206.740347 C385.002628,207.617153 393.950722,216.482638 394.319715,216.677484 C394.688709,216.87233 399.559424,219.790146 399.559424,219.790146 C399.559424,219.790146 399.946868,203.715366 399.559424,199.043937 C399.527023,198.016264 399.607509,196.988088 399.79927,195.979987 L398.544692,201.382087 L398.63694,212.19603 L399.374927,212.780568 L397.714456,215.410986 L397.714456,213.462528 C397.714456,213.462528 391.810559,207.422307 390.888075,204.889312 C389.965591,202.356316 386.644649,197.767697 386.644649,197.767697 C386.644649,197.767697 382.862465,191.055258 382.770216,189.886184 C382.70103,188.975279 381.109745,186.866073 380.41327,185.989267 C379.638383,185.96004 378.914234,185.989267 378.914234,185.989267 Z" id="Path" fill="#000000" opacity="0.1"></path>
            <path d="M413.723288,220.94965 C413.836667,221.58998 414.054246,222.206496 414.367035,222.773723 C416.366757,222.564327 423.1649,221.270724 424.662409,213.3509 C423.749294,212.499356 423.037064,211.833942 423.037064,211.833942 C423.037064,211.833942 413.631977,218.720745 413.723288,220.94965 Z" id="Path" fill="#000000" opacity="0.1"></path>
            <path d="M345.100365,285.428832 C347.071319,283.92538 348.983145,281.880475 350.111516,281.312738 C351.786827,280.471646 354.349067,277.738097 354.349067,277.738097 C354.349067,277.738097 354.999482,277.264983 355.994814,276.644678 C357.822874,275.49869 360.823652,273.84279 363.119813,273.637774 C365.174533,273.453785 371.989107,272.985928 377.409231,272.628464 L384.425828,272.165863 C384.425828,272.165863 390.831429,269.747724 393.590764,271.324771 C395.566982,272.380959 397.650048,273.192288 399.79927,273.742911 C399.79927,273.742911 399.79927,273.51161 399.79927,273.117348 L397.729768,269.542707 L375.871887,271.529787 L373.068204,269.516423 L359.177905,270.567788 L355.053683,273.416987 L351.496111,273.742911 L353.087657,274.794275 L345.386153,280.0511 C345.386153,280.0511 345.144711,282.400901 345.100365,285.428832 Z" id="Path" fill="#000000" opacity="0.1"></path>
            <path d="M343.391653,284.362454 C344.427524,284.053462 345.397892,283.557582 346.254669,282.89939 C348.208946,281.509478 350.089937,279.612371 351.20876,279.090545 C352.869896,278.310244 355.410455,275.774265 355.410455,275.774265 C355.410455,275.774265 360.589289,272.26291 364.106987,271.970297 C365.084126,271.892267 367.067716,271.750837 369.481248,271.594777 C371.89478,271.438717 374.855509,271.248518 377.454698,271.107089 L381.597764,270.848614 L385.208291,270.624277 C385.208291,270.624277 391.55969,268.380912 394.295678,269.843976 C396.255173,270.823827 398.320613,271.576517 400.45165,272.087342 C400.45165,272.087342 400.549363,265.259707 401.331074,262.431116 C402.112785,259.602524 403.187637,254.437906 403.187637,254.437906 C403.187637,254.437906 404.067062,247.317658 404.946486,244.098916 C405.825911,240.880174 409.241009,222.933248 410.999858,221.762796 C412.758708,220.592344 413.735846,222.640635 413.735846,222.640635 C413.735846,222.640635 425.461507,222.445559 425.656934,209.575468 C425.656934,209.575468 420.184959,204.11336 419.794104,202.747833 C419.403249,201.382306 414.224415,196.310348 414.224415,196.310348 C414.224415,196.310348 411.293,190.84824 407.970729,190.750703 C406.401174,190.660473 404.826694,190.709434 403.265808,190.897009 L400.45165,202.357682 L400.549363,213.18436 L401.331074,213.769586 L399.572225,216.403102 L399.572225,214.45235 C399.572225,214.45235 393.318539,208.405016 392.341401,205.869037 C391.364263,203.333058 387.846564,198.739036 387.846564,198.739036 C387.846564,198.739036 383.840297,192.018692 383.742583,190.84824 C383.644869,189.677789 380.908882,186.541953 380.908882,186.541953 C380.357029,186.477907 379.799599,186.477907 379.247746,186.541953 C379.000537,186.560437 378.75224,186.525505 378.519778,186.439539 C376.941094,185.934642 375.259374,185.840635 373.634086,186.166434 C370.258073,186.863828 365.118325,188.146448 363.711246,189.677789 C361.561542,192.018692 358.434699,194.262058 354.917001,204.015822 L373.8686,210.843457 L372.217236,213.925646 L357.135105,242.54319 C357.135105,242.54319 356.646536,243.35763 355.957653,244.42079 C355.078228,245.800948 353.900777,247.600517 353.128837,248.590524 C351.760844,250.346202 352.151699,255.905847 352.151699,255.905847 C352.151699,255.905847 351.858557,258.539364 350.881419,259.51474 C349.904281,260.490116 350.099708,264.099009 350.099708,264.099009 L347.559148,273.56016 C347.559148,273.56016 345.214016,275.705989 345.214016,276.681365 C345.214016,277.656741 343.357453,280.387795 343.357453,280.387795 C343.357453,280.387795 340.543295,285.064725 343.391653,284.362454 Z" id="Path" fill="#434175"></path>
            <path d="M442.563869,291.395985 C442.563869,291.395985 436.456738,293.56564 434.802622,296.672544 C433.148506,299.779448 442.563869,291.395985 442.563869,291.395985 Z" id="Path" fill="#000000" opacity="0.1"></path>
            <path d="M440.574818,285.428832 C440.378948,285.72679 432.123041,294.124245 432.642096,296.150361 C433.16115,298.176477 440.574818,285.428832 440.574818,285.428832 Z" id="Path" fill="#000000" opacity="0.1"></path>
            <path d="M395.821168,290.40146 C395.821168,290.40146 385.803673,295.021178 384.927943,297.054688 C384.052213,299.088198 395.821168,290.40146 395.821168,290.40146 Z" id="Path" fill="#000000" opacity="0.1"></path>
            <path d="M394.826642,296.368613 C394.826642,296.368613 386.13363,299.48111 384.967743,300.259234 C383.801857,301.037358 394.826642,296.368613 394.826642,296.368613 Z" id="Path" fill="#000000" opacity="0.1"></path>
            <path d="M389.854015,303.887653 C389.854015,303.887653 386.226665,306.665205 384.222204,304.482843 C382.217743,302.30048 389.854015,303.887653 389.854015,303.887653 Z" id="Path" fill="#000000" opacity="0.1"></path>
            <path d="M404.771898,233.713504 C404.565459,234.00483 391.663044,255.854272 388.256807,257.505119 C384.850569,259.155966 404.771898,233.713504 404.771898,233.713504 Z" id="Path" fill="#000000" opacity="0.1"></path>
            <path d="M404.771898,241.669708 C404.771898,242.150379 392.107665,267.236601 390.031561,267.525004 C387.955458,267.813406 404.771898,241.669708 404.771898,241.669708 Z" id="Path" fill="#000000" opacity="0.1"></path>
            <path d="M359.023723,257.582117 C359.023723,257.582117 352.844482,269.791616 350.421045,270.485282 C347.997608,271.178949 359.023723,257.582117 359.023723,257.582117 Z" id="Path" fill="#000000" opacity="0.1"></path>
            <path d="M358.029197,252.609489 C358.029197,252.609489 356.288547,256.587591 355.229581,256.587591 C354.170614,256.587591 358.029197,252.609489 358.029197,252.609489 Z" id="Path" fill="#000000" opacity="0.1"></path>
            <path d="M412.715876,168.43607 C412.716842,170.236658 412.431466,172.025847 411.87053,173.736041 C411.729419,174.177464 411.566334,174.611496 411.38189,175.036496 C410.517285,174.90277 409.703149,174.5422 409.021762,173.991224 C408.296267,173.49762 407.690157,172.846985 407.248001,172.087161 C406.91465,171.277646 406.625916,170.450319 406.383109,169.608934 C405.589056,167.675142 403.814484,166.324882 401.745921,166.080527 C402.307856,167.062003 401.413646,168.362459 400.314207,168.534217 C399.214769,168.705976 398.144648,168.043479 397.382371,167.223947 C396.620093,166.404414 396.077704,165.408216 395.325199,164.588683 C394.572694,163.769151 393.497687,163.116469 392.393362,163.278413 C391.416084,163.425634 390.668465,164.171556 389.852437,164.72609 C389.03641,165.280624 387.89788,165.653585 387.116057,165.059792 C386.676281,164.730998 386.46128,164.171556 386.04105,163.813317 C384.961157,162.905452 383.280237,163.842762 382.483755,165.015626 C381.25727,166.831356 380.529197,167.93061 378.916687,168.750142 C378.916687,168.647087 378.916687,168.539125 378.916687,168.43607 C378.812839,162.301947 382.011909,156.58862 387.284868,153.491056 C392.557828,150.393492 399.084508,150.393492 404.357467,153.491056 C409.630427,156.58862 412.829497,162.301947 412.725649,168.43607 L412.715876,168.43607 Z" id="Path" fill="#000000" opacity="0.1"></path>
            <path d="M382.237152,165.941272 C383.020077,164.756452 384.672384,163.813533 385.733895,164.731768 C386.146972,165.087214 386.358314,165.650004 386.790603,165.985702 C387.559118,166.583049 388.683071,166.207856 389.480406,165.650004 C390.27774,165.092151 391.022239,164.341765 391.97808,164.193663 C393.058804,164.020877 394.110709,164.687338 394.860011,165.511775 C395.609313,166.336212 396.137667,167.338371 396.882166,168.162808 C397.626665,168.987245 398.67857,169.643833 399.764097,169.475983 C400.849625,169.308134 401.72381,167.994959 401.17144,167.007609 C403.203792,167.253092 404.94686,168.611854 405.724892,170.557131 C405.965731,171.402839 406.24951,172.234998 406.575061,173.050189 C407.011645,173.813295 407.609076,174.466134 408.323433,174.960711 C409.202422,175.627172 410.27354,176.185024 411.349461,175.992491 C412.425382,175.799958 413.337993,174.511467 412.838459,173.524117 C413.179487,174.062223 413.919183,173.311837 414.029657,172.679933 C414.274084,171.292416 414.198408,169.865313 413.808709,168.513318 C413.280355,166.676847 412.166008,164.860124 412.593494,162.994033 C412.934523,161.513008 414.159344,160.461481 414.903843,159.153243 C416.224728,156.832971 415.864486,153.72282 414.269818,151.590144 C412.57767,149.480051 410.009589,148.323448 407.353183,148.475056 C406.632243,148.557188 405.905444,148.570409 405.182128,148.51455 C403.97652,148.33189 402.953434,147.5272 401.992791,146.762004 L393.937793,140.314611 C393.04351,139.502336 392.013379,138.863395 390.897355,138.428773 C389.763796,138.068391 388.399682,138.191809 387.535102,139.05574 C386.026891,140.605879 386.982732,143.271723 386.377526,145.369841 C385.853976,147.186565 384.168046,148.420752 382.424477,149.032909 C380.680909,149.645065 378.812457,149.783294 377.016053,150.227602 C376.483369,150.318523 375.985049,150.557537 375.575087,150.918746 C375.11041,151.510729 374.885111,152.263751 374.945866,153.021801 C374.933402,154.878624 375.362086,156.710511 376.194703,158.358426 C377.126527,160.199833 378.596312,162.090608 378.082368,164.099865 C377.803781,165.161265 377.006447,165.975829 376.305177,166.805203 C374.78736,168.602179 374.273415,171.248276 377.136134,170.330041 C379.907591,169.441426 380.680909,168.291164 382.237152,165.941272 Z" id="Path" fill="#434175"></path>
            <g id="Group" opacity="0.1" transform="translate(373.941606, 151.167883)" fill="#000000">
                <path d="M40.7109033,18.5395799 C40.5915602,19.1630865 39.8307482,19.9035007 39.472719,19.3725458 C39.9699818,20.3467749 39.045073,21.6084016 37.9312044,21.8081186 C36.8173358,22.0078355 35.7134124,21.4427827 34.7984489,20.7900492 C34.0601507,20.3000897 33.4433447,19.6542588 32.993385,18.9000447 C32.5756843,18.1352748 32.4414234,17.2487264 32.1132299,16.4401162 C31.3034283,14.5219152 29.4984553,13.1823047 27.3942062,12.9377626 C27.971031,13.9119917 27.0560675,15.2077164 25.9372263,15.3733353 C24.818385,15.5389543 23.7293796,14.8862208 22.9536496,14.0727395 C22.1779197,13.2592582 21.625958,12.2752868 20.8601734,11.4569343 C20.0943887,10.6385819 19.0004106,9.99559065 17.8765967,10.1563384 C16.8820712,10.307344 16.1212591,11.0428869 15.2908303,11.5933264 C14.4604015,12.1437658 13.3017792,12.518844 12.5061588,11.9294354 C12.0586223,11.5981975 11.8447993,11.0428869 11.4171533,10.6921645 C10.3132299,9.78613139 8.60264599,10.7165202 7.79210766,11.880724 C6.18594891,14.1993892 5.38535584,15.3441084 2.53106752,16.2257858 C1.5962135,16.5131834 1.00944343,16.4498585 0.691195255,16.1722032 C0.0696167883,17.5799642 0.353056569,18.8172352 2.53106752,18.1450171 C5.38535584,17.2633398 6.18594891,16.1234917 7.79210766,13.8048265 C8.60264599,12.6357515 10.3132299,11.7053627 11.4171533,12.6113958 C11.8447993,12.9621183 12.0586223,13.5174289 12.5061588,13.8486668 C13.3067518,14.4380754 14.4653741,14.0678683 15.2908303,13.5174289 C16.1162865,12.9669894 16.8870438,12.2265753 17.8765967,12.0804409 C18.995438,11.9099508 20.0844434,12.5675555 20.8601734,13.3810368 C21.6359033,14.1945181 22.1828923,15.1833606 22.9536496,15.9968419 C23.7244069,16.8103233 24.8134124,17.4581856 25.9372263,17.2925667 C27.0610401,17.1269477 27.971031,15.831223 27.3942062,14.8569939 C29.5000964,15.0975428 31.3069085,16.4385183 32.1132299,18.3593475 C32.3603222,19.1945207 32.6541516,20.0157388 32.993385,20.819276 C33.4439401,21.571723 34.0607035,22.2158449 34.7984489,22.7044094 C35.7134124,23.362014 36.8173358,23.9124534 37.9312044,23.7224788 C39.045073,23.5325041 39.9898723,22.2611351 39.472719,21.286906 C39.8307482,21.8178609 40.5915602,21.0774467 40.7109033,20.4539401 C40.8649005,19.6132941 40.895043,18.7553594 40.8004106,17.906331 C40.7838352,18.117414 40.7539994,18.3284969 40.7109033,18.5395799 Z" id="Path"></path>
                <path d="M3.48083942,10.141725 C3.48083942,10.1124981 3.48083942,10.0930136 3.50570255,10.0637867 C4.04771898,8.08610159 2.51117701,6.22045285 1.55145985,4.40351557 C0.875433646,3.12136683 0.456796415,1.72407205 0.318248175,0.287397587 C0.281069643,0.542376566 0.261135686,0.799483934 0.258576642,1.05703858 C0.248068857,2.88891563 0.69173673,4.69590453 1.55145985,6.32274691 C2.22773723,7.56488902 3.14767336,8.83138686 3.48083942,10.141725 Z" id="Path"></path>
                <path d="M41.6109489,5.19264114 C40.8401916,6.48349471 39.5721715,7.52591986 39.219115,8.98239237 C39.0773084,9.59651792 39.0773084,10.2339156 39.219115,10.8480411 C39.5870894,9.42079547 40.8302464,8.38811262 41.5910584,7.11187249 C42.3138893,5.86582957 42.5838601,4.41644504 42.3568431,3.00062565 C42.2582806,3.77234829 42.004779,4.51733243 41.6109489,5.19264114 Z" id="Path"></path>
            </g>
            <path d="M357.034672,244.360632 C357.163245,244.900176 357.26278,245.446216 357.332846,245.996402 C357.332846,245.996402 365.056051,264.063122 366.033671,265.132477 C366.331846,265.464514 367.465886,267.085636 368.893212,269.180399 L370.530727,271.59255 C373.46359,275.987157 376.782613,280.953064 376.782613,280.953064 L384.03656,287.281299 C384.03656,287.281299 399.771367,288.536203 404.771898,283.438458 C404.165773,283.013646 403.794277,282.789033 403.794277,282.789033 L401.643511,281.119082 C400.533911,279.248933 396.266596,277.422729 391.984617,275.99204 C388.025253,276.021338 384.784439,276.343609 384.784439,276.343609 L383.757938,273.633601 L382.682555,270.806403 L377.193214,256.44092 C377.193214,256.44092 373.664002,238.281425 372.490857,237.39762 C371.317712,236.513816 371.615887,233.784277 371.615887,233.784277 C371.615887,233.784277 373.761764,226.069299 372.979668,224.995062 C372.197571,223.920824 374.250575,216.015414 374.250575,216.015414 C374.049298,215.24182 373.732936,214.502782 373.312059,213.822993 L358.222481,242.475834 C358.222481,242.475834 357.70923,243.29616 357.034672,244.360632 Z" id="Path" fill="#000000" opacity="0.1"></path>
            <path d="M373.49928,215.237452 C373.49928,215.237452 371.425822,223.226744 372.215711,224.31238 C373.005599,225.398016 370.833405,233.194854 370.833405,233.194854 C370.833405,233.194854 370.542134,235.95829 371.72203,236.846538 C372.901927,237.734785 376.471236,256.091898 376.471236,256.091898 L384.118347,276.225506 C384.118347,276.225506 408.051976,273.856846 405.588511,281.357602 C403.125045,288.858358 383.372889,287.279251 383.372889,287.279251 L376.066418,280.864131 C376.066418,280.864131 366.192809,265.961314 365.205448,264.875678 C364.218087,263.790042 356.417936,245.536558 356.417936,245.536558 C356.417936,245.536558 356.022991,241.884874 354.344478,240.009685 C352.665964,238.134496 353.949533,234.961479 353.949533,234.961479 C353.949533,234.961479 351.876075,211.097233 354.048269,208.235102 C356.220463,205.372972 371.22835,206.651061 373.49928,215.237452 Z" id="Path" fill="#EE8E9E"></path>
            <path d="M361.471226,202.188154 L355.231452,205.758084 C355.231452,205.758084 353.44866,211.488761 352.062044,212.240325 C352.062044,212.240325 364.54159,205.664138 373.94582,220.784672 C373.94582,220.784672 373.648688,218.816513 374.93626,217.877057 C376.223832,216.937602 375.9267,212.897944 375.9267,212.897944 C376.2693,212.259657 376.56708,211.600604 376.818096,210.925088 C377.709493,208.858286 373.074233,197.021149 361.471226,202.188154 Z" id="Path" fill="#000000" opacity="0.1"></path>
            <path d="M360.475306,200.199103 L354.236457,203.769033 C354.236457,203.769033 352.453929,209.49971 351.067518,210.251274 C351.067518,210.251274 363.545216,203.675087 372.948052,218.79562 C372.948052,218.79562 372.650964,216.827462 373.938346,215.888006 C375.225727,214.948551 374.928639,210.908893 374.928639,210.908893 C375.271188,210.270606 375.568924,209.611553 375.819903,208.936037 C376.730973,206.869235 372.056788,195.032098 360.475306,200.199103 Z" id="Path" fill="#434175"></path>
            <ellipse id="Oval" fill="#FBD56F" cx="306.811131" cy="352.559307" rx="18.3987226" ry="19.3932482"></ellipse>
            <ellipse id="Oval" fill="#000000" opacity="0.1" cx="306.811131" cy="352.559307" rx="18.3987226" ry="19.3932482"></ellipse>
            <ellipse id="Oval" fill="#FBD56F" cx="308.800182" cy="353.056569" rx="18.3987226" ry="18.8959854"></ellipse>
            <ellipse id="Oval" fill="#6C63FF" cx="43.7591241" cy="359.023723" rx="22.8740876" ry="3.97810219"></ellipse>
            <path d="M52.3941982,352.254918 C53.4009925,351.291689 54.3322772,350.172261 54.6242476,348.776881 C54.9162179,347.381501 54.3423452,345.746616 53.0687504,345.241571 C51.6391025,344.674048 50.1087752,345.699756 48.9509617,346.735878 C47.7931483,347.771999 46.4692138,348.9487 44.9539884,348.730021 C46.5395666,347.244237 47.2543878,345.006448 46.8366937,342.836103 C46.7768639,342.397135 46.6028699,341.983222 46.3332966,341.638575 C45.542963,340.76386 44.1032472,341.117911 43.1518266,341.831221 C40.1314437,344.028424 39.2907704,348.271837 39.2756685,352.088305 C38.9685963,350.708545 39.2253288,349.276719 39.2202948,347.860512 C39.2152609,346.444306 38.837713,344.882313 37.7101034,344.122144 C36.9913237,343.724292 36.1841518,343.528594 35.3693067,343.55462 C34.0101344,343.502553 32.4999429,343.643132 31.5736922,344.668841 C30.4209127,345.949675 30.717917,348.089604 31.7196773,349.495398 C32.7214377,350.901191 34.2366631,351.775907 35.6512091,352.749549 C36.7759005,353.444137 37.7357508,354.390653 38.4601652,355.519482 C38.5464961,355.685036 38.6156775,355.859559 38.666558,356.040146 L47.1790038,356.040146 C49.0744516,355.027371 50.8287514,353.754086 52.3941982,352.254918 Z" id="Path" fill="#6C63FF"></path>
            <path d="M206.861314,145.412134 L224.834887,136.25 L231.4707,142.436852 L233.049076,146.858787 L234.708029,154.28976 L233.24815,157.544729 L221.753974,159.67613 C221.753974,159.67613 215.630067,159.314467 214.682093,159.796685 C213.73412,160.278902 209.866389,161.113139 209.866389,161.113139 L206.861314,153.585722 L206.861314,145.412134 Z" id="Path" fill="#FBD56F"></path>
        </g>
    </g>
</svg>