<?xml version="1.0" encoding="UTF-8"?>
<svg width="545px" height="377px" viewBox="0 0 545 377" version="1.1" xmlns="http://www.w3.org/2000/svg" xmlns:xlink="http://www.w3.org/1999/xlink">
    <!-- Generator: Sketch 52.2 (67145) - http://www.bohemiancoding.com/sketch -->
    <title>undraw_maker_launch_crhe</title>
    <desc>Created with Sketch.</desc>
    <defs>
        <linearGradient x1="49.9996956%" y1="99.9906158%" x2="49.9996956%" y2="-0.00256609128%" id="linearGradient-1">
            <stop stop-color="#808080" stop-opacity="0.25" offset="0%"></stop>
            <stop stop-color="#808080" stop-opacity="0.12" offset="54%"></stop>
            <stop stop-color="#808080" stop-opacity="0.1" offset="100%"></stop>
        </linearGradient>
    </defs>
    <g id="Page-1" stroke="none" stroke-width="1" fill="none" fill-rule="evenodd">
        <g id="undraw_maker_launch_crhe">
            <path d="M4.18525835,198.233263 C13.8161006,182.539642 35.5953713,185.275184 51.0400702,193.467511 C66.484769,201.659839 81.8960275,213.888758 98.8933175,211.539243 C113.224928,209.55669 124.976849,197.089483 131.325752,182.706444 C137.674655,168.323404 139.537765,152.105551 141.324439,136.221299 C143.569725,116.265508 145.813418,96.2970071 148.055519,76.3157979 C148.877198,69.0099003 149.84697,61.2989137 153.964919,55.5180566 C159.406154,47.8928535 169.380955,45.5481036 177.91304,47.8404303 C186.445126,50.1327569 193.720807,56.2805769 199.945503,63.1384939 C219.88555,85.0990787 231.183637,114.784947 248.615652,139.223723 C252.165114,144.199168 256.173188,149.117424 261.475884,151.519363 C269.119409,154.974533 277.895132,152.529703 285.361901,148.683741 C309.725639,136.154579 326.092338,110.58632 342.177182,86.7289659 C350.002242,75.1338915 359.542317,62.733405 372.560197,61.4704807 C386.256439,60.1122414 398.146898,71.7549734 406.196486,84.0839736 C432.031603,123.754092 437.568382,177.912097 468.777852,212.511456 C472.652164,216.800633 476.927761,220.765738 481.853058,223.429794 C483.477402,224.305416 485.17103,225.046595 486.916894,225.645868 C514.146954,235.048697 523.22364,272.793452 503.08295,295.173423 C502.648225,295.649998 502.203945,296.126573 501.754888,296.603149 C498.764358,299.753311 495.377321,302.731906 491.335807,303.670759 C487.576148,304.538126 483.692281,303.537318 479.966063,302.455492 C456.146926,295.521323 432.614422,284.922291 407.987938,285.436992 C384.025485,285.913567 361.295551,296.955814 337.600621,300.930451 C321.668648,303.604038 305.459596,303.070274 289.350866,302.493618 C235.699686,300.568254 182.059653,298.328351 128.430767,295.773908 C101.812189,294.553875 75.1840566,293.391032 48.570256,292.032793 C28.0664986,290.97003 15.0056242,288.630046 12.6265769,264.891835 C10.5437162,244.103626 -8.16381267,218.363799 4.18525835,198.233263 Z" id="Path" fill="#6C63FF" opacity="0.1"></path>
            <ellipse id="Oval" fill="#30374E" cx="377" cy="359" rx="129" ry="18"></ellipse>
            <path d="M71,280.231788 C71,280.231788 77.0411899,278.808114 81,283.017444 C81,283.017444 78.4553776,285.390234 72.4691076,282.761183 L71,280.231788 Z" id="Path" fill="#6C63FF"></path>
            <path d="M70.1930717,280 C70.1930717,280 66.3884299,285.428953 68.8016043,291 C68.8016043,291 72.0905274,289.407572 71.9980873,282.449889 L70.1930717,280 Z" id="Path" fill="#6C63FF"></path>
            <path d="M66,272.827596 C66,272.827596 68.2581481,268.122986 79,273.810234 C79,273.810234 77.8444444,276.952821 73.28,276.999172 C68.7155556,277.045523 67.3481481,275.140503 66,272.827596 Z" id="Path" fill="#6C63FF"></path>
            <path d="M65.2589457,272.000386 C65.2589457,272.000386 59.6992075,271.750365 60.0127827,283.98215 C60.0127827,283.98215 63.5616577,284.462959 65.7765937,280.433778 C67.9915297,276.404598 66.816867,274.322694 65.2589457,272.000386 Z" id="Path" fill="#6C63FF"></path>
            <path d="M62,261.986786 C62,261.986786 64.283105,253.488569 75,258.679788 C75,258.679788 73.1278539,266.461809 63.2191781,264.755436 L62,261.986786 Z" id="Path" fill="#6C63FF"></path>
            <path d="M57,250.297903 C57,250.297903 62.2102185,241.805258 73,248.69622 C73,248.69622 69.9516774,256.550986 58.0834103,253.142753 L57,250.297903 Z" id="Path" fill="#6C63FF"></path>
            <path d="M55,238.859709 C55,238.859709 61.2488359,230.946462 72,237.781267 C72,237.781267 66.0331781,244.756129 55.1335856,240.769159 L55,238.859709 Z" id="Path" fill="#6C63FF"></path>
            <path d="M54,228.023948 C54,228.023948 60.0779994,220.014681 70,226.595342 C70,226.595342 63.0074427,233.774657 54.1238464,229.80177 L54,228.023948 Z" id="Path" fill="#6C63FF"></path>
            <path d="M54,217.434805 C54,217.434805 60.4441041,206.61857 70,213.032458 C70,213.032458 62.9335375,222.427651 54.1372129,219.398338 L54,217.434805 Z" id="Path" fill="#6C63FF"></path>
            <path d="M54,206.032541 C54,206.032541 60.7694167,195.204841 70,202.561876 C70,202.561876 61.731641,212.10862 54.1063765,207.951557 L54,206.032541 Z" id="Path" fill="#6C63FF"></path>
            <path d="M56.225,194.365523 C56.225,194.365523 64.725,184.405983 73,187.649493 C73,187.649493 64.16,198.211934 56,196.884618 L56.225,194.365523 Z" id="Path" fill="#6C63FF"></path>
            <path d="M58.5765337,184.699121 C58.5765337,184.699121 67.8868374,172.051581 74,175.641536 C74,175.641536 67.1816557,185.414193 58,187 L58.5765337,184.699121 Z" id="Path" fill="#6C63FF"></path>
            <path d="M62.0151057,172.806466 C62.0151057,172.806466 70.3148036,162.234082 77,164.257315 C77,164.257315 70.0151057,175.112356 61,176 L62.0151057,172.806466 Z" id="Path" fill="#6C63FF"></path>
            <path d="M65.2952974,160.873841 C65.2952974,160.873841 74.5802213,150.76206 79,152.126659 C79,152.126659 72.5373444,163.10236 65,162.999278 L65.2952974,160.873841 Z" id="Path" fill="#6C63FF"></path>
            <path d="M68,150.897902 C68,150.897902 76.1010844,139.474874 81,140.018828 C81,140.018828 76.3125484,150.041767 68.0805577,152 L68,150.897902 Z" id="Path" fill="#6C63FF"></path>
            <path d="M72.1239705,137.2064 C72.1239705,137.2064 78.9852622,128.2496 83,128 C83,128 77.893368,139.6832 72,140 L72.1239705,137.2064 Z" id="Path" fill="#6C63FF"></path>
            <path d="M73.699795,127.738458 L79.8993878,110 C79.8993878,110 81.3778281,125.578216 73,131 L73.699795,127.738458 Z" id="Path" fill="#6C63FF"></path>
            <path d="M75.6399182,108.622779 C75.6399182,108.622779 75.8516205,94.1209591 75,93 C75,93 80.9998346,104.652323 76.0296428,115 L75.6399182,108.622779 Z" id="Path" fill="#6C63FF"></path>
            <path d="M60.9262963,262.697844 C60.9262963,262.697844 53.0974074,258.636574 49,270.108956 C49,270.108956 55.9814815,274.010037 62,265.487023 L60.9262963,262.697844 Z" id="Path" fill="#6C63FF"></path>
            <path d="M56.9752626,250.489086 C56.9752626,250.489086 47.6197899,246.923648 44,259.046137 C44,259.046137 51.339207,263.425164 58,253.418009 L56.9752626,250.489086 Z" id="Path" fill="#6C63FF"></path>
            <path d="M54.867456,239.866358 C54.867456,239.866358 47.6069882,232.737014 38,240.965721 C38,240.965721 44.8431995,247.189152 55,241.810295 L54.867456,239.866358 Z" id="Path" fill="#6C63FF"></path>
            <path d="M53.855,227.112419 C53.855,227.112419 46.355,219.702116 37,227.749864 C37,227.749864 45.33,234.185251 54,228.945075 L53.855,227.112419 Z" id="Path" fill="#6C63FF"></path>
            <path d="M54,217.810012 C54,217.810012 48.6465598,207.14578 39,212.50743 C39,212.50743 45.0603205,221.881232 53.7219604,219.659327 L54,217.810012 Z" id="Path" fill="#6C63FF"></path>
            <path d="M54,204.685943 C54,204.685943 48.6990019,193.92917 39,199.703622 C39,199.703622 45.8590143,209.429726 53.6631316,206.42323 L54,204.685943 Z" id="Path" fill="#6C63FF"></path>
            <path d="M57,195.562044 C57,195.562044 54.3656051,182.593674 46,182 C46,182 48.6530786,195.688564 56.0471338,198 L57,195.562044 Z" id="Path" fill="#6C63FF"></path>
            <path d="M59,183.853836 C59,183.853836 57.2107259,169.068641 50,169 C50,169 51.0482124,180.243338 58.3418202,186 L59,183.853836 Z" id="Path" fill="#6C63FF"></path>
            <path d="M62,171.801792 C62,171.801792 59.2696629,159.113662 53,158 C53,158 54.5388373,170.37402 61.5867123,175 L62,171.801792 Z" id="Path" fill="#6C63FF"></path>
            <path d="M66,162.19333 C66,162.19333 64.9469907,148.705766 60.2610994,147 C60.2610994,147 58.3604177,159.387224 64.8153646,164 L66,162.19333 Z" id="Path" fill="#6C63FF"></path>
            <path d="M69,151.018659 C69,151.018659 67.4715506,136.719825 63.0269169,135 C63.0269169,135 62.2990839,146.444023 68.4128814,152 L69,151.018659 Z" id="Path" fill="#6C63FF"></path>
            <path d="M73,138.640048 C73,138.640048 72.1280765,127.431466 68.5606336,125 C68.5606336,125 66.1256278,137.486293 71.405018,141 L73,138.640048 Z" id="Path" fill="#6C63FF"></path>
            <path d="M73.5714723,127.616863 L68.6740126,109 C68.6740126,109 65.2068338,124.685452 74,131 L73.5714723,127.616863 Z" id="Path" fill="#6C63FF"></path>
            <path d="M73.5982311,109.441464 C73.5982311,109.441464 64.9315858,97.400351 65.0004077,96 C65.0004077,96 66.740619,109.088995 77,115 L73.5982311,109.441464 Z" id="Path" fill="#6C63FF"></path>
            <path d="M73.4010152,105 C73.4010152,105 64.5380711,87.2715385 61,86 C61,86 72.213198,90.5941026 74,104.415385 L73.4010152,105 Z" id="Path" fill="#6C63FF"></path>
            <path d="M71.5207763,140 L71,139.881 C76.1296463,119.888933 76.8535253,107.284411 73.0310275,104.390321 L73.3851553,104 C77.4159637,107.06545 76.7806166,119.517652 71.5207763,140 Z" id="Path" fill="#444053"></path>
            <path d="M58.7610475,187 L58,186.792985 C58.5351882,184.934663 59.1145663,183.042641 59.7332242,181.179505 C65.1342062,164.945667 69.6219313,149.88652 72.3764321,138.361073 L73,138 C70.2405892,149.554333 65.8756137,165.167125 60.4844517,181.415406 C59.8707038,183.273728 59.2913257,185.151307 58.7610475,187 Z" id="Path" fill="#444053"></path>
            <path d="M80.3114402,295 C80.2090867,294.899566 69.9737383,284.540477 62.1111297,266.18968 C57.5042489,255.448431 54.5819643,244.024686 53.4529554,232.343293 C52.0572261,217.742047 53.9647228,201.194287 58.1053865,186 L58.7008977,186.631302 C49.3960355,220.735948 55.8210429,248.967575 62.9950916,265.735334 C70.7786089,283.909175 80.8976465,294.167829 81,294.268264 L80.3114402,295 Z" id="Path" fill="#444053"></path>
            <path d="M92,240.117851 C92,240.117851 95.6308623,239.398886 98,241.512565 C98,241.512565 96.4704992,242.691196 92.8850227,241.382915 L92,240.117851 Z" id="Path" fill="#6C63FF"></path>
            <path d="M92.0873776,240 C92.0873776,240 90.1990508,242.962417 91.3992585,246 C91.3992585,246 93.0315409,245.115696 92.9995354,241.335298 L92.0873776,240 Z" id="Path" fill="#6C63FF"></path>
            <path d="M89,235.216863 C89,235.216863 90.3889571,232.081333 97,235.876706 C97,235.876706 96.2883436,237.968764 93.4760736,237.999455 C90.6638037,238.030145 89.8392638,236.761611 89,235.216863 Z" id="Path" fill="#6C63FF"></path>
            <path d="M89.0083205,235.000216 C89.0083205,235.000216 85.8285167,234.856341 86.0072631,241.989767 C86.0072631,241.989767 88.0346232,242.268235 89.2999593,239.919821 C90.5652954,237.571406 89.8973485,236.355428 89.0083205,235.000216 Z" id="Path" fill="#6C63FF"></path>
            <path d="M87,230.125193 C87,230.125193 88.4254208,224.807069 95,228.045702 C95,228.045702 93.8531631,232.916089 87.7614626,231.846494 L87,230.125193 Z" id="Path" fill="#6C63FF"></path>
            <path d="M85,221.684049 C85,221.684049 87.9282077,216.38224 94,220.681525 C94,220.681525 92.2815682,225.597749 85.6094705,223.462565 L85,221.684049 Z" id="Path" fill="#6C63FF"></path>
            <path d="M83,214.209926 C83,214.209926 86.6783823,209.680051 93,213.591212 C93,213.591212 89.4949446,217.568663 83.0818488,215.301516 L83,214.209926 Z" id="Path" fill="#6C63FF"></path>
            <path d="M82,207.873548 C82,207.873548 85.4209749,202.152146 91,206.855696 C91,206.855696 87.0694239,211.982457 82.070901,209.143185 L82,207.873548 Z" id="Path" fill="#6C63FF"></path>
            <path d="M82,202.291624 C82,202.291624 85.6492651,195.078079 91,199.355324 C91,199.355324 87.0223011,205.625438 82.0729853,203.595469 L82,202.291624 Z" id="Path" fill="#6C63FF"></path>
            <path d="M82,195.039385 C82,195.039385 85.8205,187.803831 91,192.700512 C91,192.700512 86.347,199.076344 82.054,196.2996 L82,195.039385 Z" id="Path" fill="#6C63FF"></path>
            <path d="M84.1095957,187.417938 C84.1095957,187.417938 88.6117876,181.441925 93,183.390625 C93,183.390625 88.3136873,189.728539 84,188.9305 L84.1095957,187.417938 Z" id="Path" fill="#6C63FF"></path>
            <path d="M85.3236453,181.657624 C85.3236453,181.657624 90.5596059,174.283941 94,176.372603 C94,176.372603 90.1650246,182.075356 85,183 L85.3236453,181.657624 Z" id="Path" fill="#6C63FF"></path>
            <path d="M87.558,175.138056 C87.558,175.138056 92.229,168.968273 96,170.150535 C96,170.150535 92.0715,176.483059 87,177 L87.558,175.138056 Z" id="Path" fill="#6C63FF"></path>
            <path d="M88.1905034,167.839219 C88.1905034,167.839219 94.1578947,162.324968 97,163.06906 C97,163.06906 92.8501144,169.052797 88,168.999648 L88.1905034,167.839219 Z" id="Path" fill="#6C63FF"></path>
            <path d="M92,162.361274 C92,162.361274 96.3632287,155.700272 99,156.01051 C99,156.01051 96.4798206,161.854855 92.044843,163 L92,162.361274 Z" id="Path" fill="#6C63FF"></path>
            <path d="M93.0688172,153.381047 C93.0688172,153.381047 96.8107527,148.148443 99,148 C99,148 96.2129032,154.828363 93,155 L93.0688172,153.381047 Z" id="Path" fill="#6C63FF"></path>
            <path d="M94.4180741,147.958519 L97.9438327,137 C97.9438327,137 98.7799809,146.62963 94,150 L94.4180741,147.958519 Z" id="Path" fill="#6C63FF"></path>
            <path d="M94.4298557,136.229816 C94.4298557,136.229816 94.5678341,127.66289 94,127 C94,127 98.0013729,133.882082 94.684585,140 L94.4298557,136.229816 Z" id="Path" fill="#6C63FF"></path>
            <path d="M87.3484385,229.467249 C87.3484385,229.467249 82.5376607,226.753505 80,234.406057 C80,234.406057 84.296387,237.005429 88,231.3284 L87.3484385,229.467249 Z" id="Path" fill="#6C63FF"></path>
            <path d="M84.3441704,221.292957 C84.3441704,221.292957 78.3256726,219.155545 76,226.427493 C76,226.427493 80.7169283,229.054134 85,223.055133 L84.3441704,221.292957 Z" id="Path" fill="#6C63FF"></path>
            <path d="M82.9188157,215.637554 C82.9188157,215.637554 78.6542502,211.566776 73,216.26177 C73,216.26177 77.025788,219.828716 83,216.743307 L82.9188157,215.637554 Z" id="Path" fill="#6C63FF"></path>
            <path d="M81.9298929,207.776615 C81.9298929,207.776615 77.9556962,203.544266 73,208.144452 C73,208.144452 77.4123661,211.818397 82,208.826946 L81.9298929,207.776615 Z" id="Path" fill="#6C63FF"></path>
            <path d="M82,201.54122 C82,201.54122 78.7880519,194.431556 73,198.003924 C73,198.003924 76.6374026,204.251811 81.8316883,202.773762 L82,201.54122 Z" id="Path" fill="#6C63FF"></path>
            <path d="M83,194.461914 C83,194.461914 79.8238022,187.282146 74,191.137855 C74,191.137855 78.1081917,197.631943 82.7867079,195.609683 L83,194.461914 Z" id="Path" fill="#6C63FF"></path>
            <path d="M84,187.632109 C84,187.632109 82.323736,180.330649 77,180 C77,180 78.6860955,187.70005 83.3904494,189 L84,187.632109 Z" id="Path" fill="#6C63FF"></path>
            <path d="M85,181.609702 C85,181.609702 83.8214286,172.048954 79,172 C79,172 79.6964286,179.274588 84.5392857,183 L85,181.609702 Z" id="Path" fill="#6C63FF"></path>
            <path d="M88,174.124132 C88,174.124132 86.1810833,166.657712 82,166 C82,166 83.0282943,173.276517 87.7283751,176 L88,174.124132 Z" id="Path" fill="#6C63FF"></path>
            <path d="M89,167.938756 C89,167.938756 88.463838,159.991117 86.1317515,159 C86.1317515,159 85.1771217,166.288453 88.4071705,169 L89,167.938756 Z" id="Path" fill="#6C63FF"></path>
            <path d="M92,162.421408 C92,162.421408 90.9831178,154.012536 88.0181033,153 C88.0181033,153 87.5310702,159.750241 91.6093031,163 L92,162.421408 Z" id="Path" fill="#6C63FF"></path>
            <path d="M93,153.673731 C93,153.673731 92.645289,147.370626 91.2264448,146 C91.2264448,146 90.2438952,153.026121 92.3721615,155 L93,153.673731 Z" id="Path" fill="#6C63FF"></path>
            <path d="M93.7881433,147.999277 L91.3379747,137 C91.3379747,137 89.6016711,146.270954 94,150 L93.7881433,147.999277 Z" id="Path" fill="#6C63FF"></path>
            <path d="M93.0163315,136.491083 C93.0163315,136.491083 87.9622479,128.890917 88.0002128,128 C88.0002128,128 89.0110295,136.267109 95,140 L93.0163315,136.491083 Z" id="Path" fill="#6C63FF"></path>
            <path d="M93.6789406,134 C93.6789406,134 88.9037468,123.723992 87,123 C87,123 93.0413437,125.66242 94,133.677707 L93.6789406,134 Z" id="Path" fill="#6C63FF"></path>
            <path d="M92.3242218,156 L92,155.927822 C95.0878263,143.710411 95.4995365,136.006562 93.214545,134.240595 L93.4255465,134 C95.8494902,135.87664 95.4686583,143.489064 92.3242218,156 Z" id="Path" fill="#444053"></path>
            <path d="M84.4580401,184 L84,183.872683 C84.3216026,182.773984 84.6724418,181.656423 85.0427721,180.57187 C88.2734164,170.957073 90.9729291,162.040163 92.624797,155.216911 L93,155 C91.3432593,161.837398 88.7265836,171.089106 85.4910666,180.713333 C85.1207363,181.802602 84.7747699,182.901301 84.4580401,184 Z" id="Path" fill="#444053"></path>
            <path d="M97.5750516,249 C97.5143447,248.937731 91.3035609,242.667755 86.5310639,231.555193 C83.7376873,225.05159 81.9646256,218.135772 81.2775813,211.06401 C80.4230148,202.221859 81.5904554,192.201393 84.1074572,183 L84.4670289,183.383192 C78.8212864,204.032441 82.7205378,221.127585 87.0727563,231.282169 C91.7985557,242.298933 97.9346233,248.492271 98,248.55454 L97.5750516,249 Z" id="Path" fill="#444053"></path>
            <path d="M112.308869,273.269374 C111.069805,273.48731 109.85649,273.830125 108.687852,274.29247 C82.6454997,284.590367 83.0800217,352 83.0800217,352 L75.4131222,352 C75.4131222,352 72.999111,323.071228 62.4788502,281.798365 C53.0014422,244.665698 91.8718505,211.386375 99.7656671,205.075686 C100.654023,204.372904 101.146481,204 101.146481,204 C140.296915,218.246859 112.308869,273.269374 112.308869,273.269374 Z" id="Path" fill="#AFC0E0"></path>
            <path d="M105,205.161816 C104.096548,204.750638 103.164108,204.358585 102.173693,204 C102.173693,204 101.690563,204.372928 100.791942,205.075755 C92.8927752,211.386852 53.9960209,244.668325 63.4798525,281.803392 C74.0072439,323.078921 76.3987348,352 76.3987348,352 L80.7130811,352 C80.7130811,352 78.3215901,323.069359 67.7700423,281.79383 C58.324861,244.830884 96.8447744,211.67372 105,205.161816 Z" id="Path" fill="#FFFFFF" opacity="0.2"></path>
            <path d="M240.522215,281.807927 C229.978723,323.080789 227.60354,352 227.60354,352 L219.922818,352 C219.922818,352 220.405579,281.549763 192.535806,273.685305 C191.932186,273.505903 191.317897,273.363798 190.696488,273.259812 C190.696488,273.259812 162.69637,218.237297 201.857914,204 C201.857914,204 202.253778,204.29163 202.968264,204.860549 C210.224157,210.611881 250.105015,244.244985 240.522215,281.807927 Z" id="Path" fill="#AFC0E0"></path>
            <path d="M112.411006,271.981022 C111.185001,272.198081 109.984474,272.539516 108.828152,273 C104.169437,250.274641 101.218526,227.234458 100,204.071356 C100.878994,203.371403 101.366262,203 101.366262,203 C140.104079,217.179988 112.411006,271.981022 112.411006,271.981022 Z" id="Path" fill="#000000" opacity="0.1"></path>
            <path d="M203,203.834015 C201.401449,226.794787 197.907532,249.591208 192.552471,272 C191.947979,271.822364 191.332803,271.681659 190.710496,271.578696 C190.710496,271.578696 162.669928,217.097979 201.888046,203.000875 C201.873543,202.98194 202.269978,203.270699 203,203.834015 Z" id="Path" fill="#000000" opacity="0.1"></path>
            <path d="M189.344519,282.625929 C186.659795,293.177399 183.513235,304.002684 179.904838,315.101786 C179.904838,315.101786 162.780135,332.872767 121.41621,315.101786 C121.41621,315.101786 117.283653,303.496443 112.738799,283.76736 C102.733409,240.38821 90.7336517,157.722824 116.300853,72.8127836 C123.91446,47.2871234 134.7359,22.8223544 148.507951,0 C148.507951,0 170.350098,24.9825312 186.381734,72.798456 C202.413371,120.614381 212.615322,191.273251 189.344519,282.625929 Z" id="Path" fill="#E3E8F4"></path>
            <circle id="Oval" fill="#AFC0E0" cx="151.5" cy="140.5" r="34.5"></circle>
            <path d="M177,139.997796 C176.999772,149.275492 171.541375,157.722282 162.981118,161.691809 C154.420861,165.661336 144.291814,164.442691 136.966539,158.561947 C135.214838,157.148833 133.669776,155.506514 132.374749,153.68112 C131.793194,152.865686 131.264794,152.015085 130.792704,151.134397 C128.955113,147.698436 127.996756,143.876737 128.000008,139.997796 C128.000008,139.804075 128.000008,139.615079 128.000008,139.426082 C128.257911,128.88992 135.493881,119.747872 145.84625,116.878836 C147.771917,116.35895 149.753586,116.063958 151.74998,116.000004 L152.483123,116.000004 C158.983236,115.996244 165.218506,118.522764 169.81659,123.023495 C174.414674,127.524226 176.998722,133.630295 177,139.997796 Z" id="Path" fill="#6C63FF"></path>
            <path d="M186,72.7468036 C147.093558,91.3164955 116,72.7468036 116,72.7468036 C123.611431,47.2430537 134.42546,22.8004708 148.185064,0 C148.185064,0 169.996033,24.9648055 186,72.7468036 Z" id="Path" fill="#AFC0E0"></path>
            <path d="M190,283 C188.169305,290.081005 186.129846,297.283498 183.881624,304.607479 C182.815325,308.100648 181.691214,311.622218 180.509291,315.172187 C180.509291,315.172187 163.300757,332.784767 121.734343,315.172187 C121.734343,315.172187 120.385409,311.437619 118.36201,304.607479 C116.849277,299.44819 114.965588,292.53285 113,284.117057 C113,284.117057 128.474191,290.6064 150.437715,290.6064 C164.005978,290.652075 177.450107,288.067254 190,283 Z" id="Path" fill="#AFC0E0"></path>
            <path d="M183,305 C181.942157,308.608544 180.826961,312.246426 179.654412,315.913645 C179.654412,315.913645 162.582353,334.107943 121.345588,315.913645 C121.345588,315.913645 120.007353,312.05573 118,305 C117.995221,305 160.025368,317.370754 183,305 Z" id="Path" fill="#E3E8F4"></path>
            <path d="M146.028011,116.900484 L145.974429,116.939215 L128.000008,140.003228 C128.000008,140.19688 128.000008,140.390533 128.000008,140.589026 C127.996723,144.563533 128.96458,148.479387 130.820385,152 L152,116 L146.028011,116.900484 Z" id="Path" fill="#FFFFFF" opacity="0.2"></path>
            <path d="M151,137.823157 L136.551585,160 C134.815222,158.534231 133.283687,156.830719 132,154.937309 L149.211877,136 L151,137.823157 Z" id="Path" fill="#FFFFFF" opacity="0.2"></path>
            <path d="M130.424166,315.106567 C130.424166,315.106567 126.329009,303.495744 121.825286,283.77024 C111.910446,240.383684 100.019288,157.713285 125.355103,72.7980947 C132.165534,49.821965 141.544831,27.6960726 153.313338,6.84422449 C150.097072,2.31165712 148.087499,0 148.087499,0 C134.437929,22.8170954 123.711243,47.2769033 116.162378,72.7980947 C90.8265635,157.713285 102.717721,240.383684 112.632562,283.77024 C117.136284,303.495744 121.231441,315.106567 121.231441,315.106567 C137.426789,322.122733 149.869035,323.593788 159,322.810499 C151.199249,322.21348 141.726229,320.002122 130.424166,315.106567 Z" id="Path" fill="#FFFFFF" opacity="0.2"></path>
            <path d="M447,348 C447,348 469.209551,320.079258 467.736517,292.11531 C467.045271,280.39224 470.136528,268.758929 476.546211,258.96183 C479.631082,254.327293 483.130346,249.988496 487,246" id="Path" stroke="#535461" stroke-width="2"></path>
            <path d="M487.543685,228.762511 C485.964209,232.687831 488.328693,247 488.328693,247 C488.328693,247 499.85319,238.539509 501.432666,234.61419 C503.011461,230.688724 501.182173,226.196563 497.346837,224.580667 C493.5115,222.96477 489.12248,224.837046 487.543685,228.762511 Z" id="Path" fill="#6C63FF"></path>
            <path d="M466.128672,246.110469 C466.891215,250.288456 476.491683,261 476.491683,261 C476.491683,261 481.701607,247.472435 480.920118,243.289601 C480.158925,239.109711 476.230679,236.352714 472.146133,237.131675 C468.061588,237.910637 465.367479,241.93058 466.128672,246.110469 Z" id="Path" fill="#6C63FF"></path>
            <path d="M451.720275,283.538881 C454.436717,286.734438 468,291 468,291 C468,291 465.80413,276.718802 463.087688,273.518425 C460.345376,270.431995 455.683946,270.143413 452.594757,272.868824 C449.505568,275.594235 449.121289,280.334353 451.72974,283.538881 L451.720275,283.538881 Z" id="Path" fill="#6C63FF"></path>
            <path d="M447.090753,313.204185 C449.249121,316.695717 461.994453,323 461.994453,323 C461.994453,323 462.204096,309.052471 460.045728,305.565588 C458.647345,303.307471 456.120584,301.948839 453.41725,302.001476 C450.713917,302.054112 448.244713,303.510021 446.939763,305.820774 C445.634813,308.131528 445.69237,310.946068 447.090753,313.204185 Z" id="Path" fill="#6C63FF"></path>
            <path d="M491.176589,267.500929 C487.24782,269.039119 473,266.530685 473,266.530685 C473,266.530685 481.552553,255.081814 485.486148,253.53889 C489.41791,251.997993 493.87908,253.874358 495.450452,257.729868 C497.021823,261.585379 495.10835,265.960031 491.176589,267.500929 Z" id="Path" fill="#6C63FF"></path>
            <path d="M485.068085,302.988899 C480.844556,303.305649 468,296.738997 468,296.738997 C468,296.738997 479.665447,288.328578 483.893809,288.011828 C488.065633,287.784447 491.657604,290.862136 491.977159,294.93784 C492.296715,299.013544 489.226553,302.591166 485.068085,302.988899 Z" id="Path" fill="#6C63FF"></path>
            <path d="M474.12645,336.846776 C469.962993,337.862495 456,333.495853 456,333.495853 C456,333.495853 466.17136,323.238992 470.334818,322.22802 C473.026578,321.570933 475.875209,322.35692 477.807657,324.289906 C479.740105,326.222892 480.462786,329.009211 479.703473,331.599284 C478.94416,334.189357 476.818211,336.189689 474.12645,336.846776 Z" id="Path" fill="#6C63FF"></path>
            <path d="M487.543685,228.762511 C485.964209,232.687831 488.328693,247 488.328693,247 C488.328693,247 499.85319,238.539509 501.432666,234.61419 C503.011461,230.688724 501.182173,226.196563 497.346837,224.580667 C493.5115,222.96477 489.12248,224.837046 487.543685,228.762511 Z" id="Path" fill="#000000" opacity="0.25"></path>
            <path d="M466.128672,246.110469 C466.891215,250.288456 476.491683,261 476.491683,261 C476.491683,261 481.701607,247.472435 480.920118,243.289601 C480.158925,239.109711 476.230679,236.352714 472.146133,237.131675 C468.061588,237.910637 465.367479,241.93058 466.128672,246.110469 Z" id="Path" fill="#000000" opacity="0.25"></path>
            <path d="M451.720275,283.538881 C454.436717,286.734438 468,291 468,291 C468,291 465.80413,276.718802 463.087688,273.518425 C460.345376,270.431995 455.683946,270.143413 452.594757,272.868824 C449.505568,275.594235 449.121289,280.334353 451.72974,283.538881 L451.720275,283.538881 Z" id="Path" fill="#000000" opacity="0.25"></path>
            <path d="M447.090753,313.204185 C449.249121,316.695717 461.994453,323 461.994453,323 C461.994453,323 462.204096,309.052471 460.045728,305.565588 C458.647345,303.307471 456.120584,301.948839 453.41725,302.001476 C450.713917,302.054112 448.244713,303.510021 446.939763,305.820774 C445.634813,308.131528 445.69237,310.946068 447.090753,313.204185 Z" id="Path" fill="#000000" opacity="0.25"></path>
            <path d="M491.176589,267.500929 C487.24782,269.039119 473,266.530685 473,266.530685 C473,266.530685 481.552553,255.081814 485.486148,253.53889 C489.41791,251.997993 493.87908,253.874358 495.450452,257.729868 C497.021823,261.585379 495.10835,265.960031 491.176589,267.500929 Z" id="Path" fill="#000000" opacity="0.25"></path>
            <path d="M485.068085,302.988899 C480.844556,303.305649 468,296.738997 468,296.738997 C468,296.738997 479.665447,288.328578 483.893809,288.011828 C488.065633,287.784447 491.657604,290.862136 491.977159,294.93784 C492.296715,299.013544 489.226553,302.591166 485.068085,302.988899 Z" id="Path" fill="#000000" opacity="0.25"></path>
            <path d="M474.12645,336.846776 C469.962993,337.862495 456,333.495853 456,333.495853 C456,333.495853 466.17136,323.238992 470.334818,322.22802 C473.026578,321.570933 475.875209,322.35692 477.807657,324.289906 C479.740105,326.222892 480.462786,329.009211 479.703473,331.599284 C478.94416,334.189357 476.818211,336.189689 474.12645,336.846776 Z" id="Path" fill="#000000" opacity="0.25"></path>
            <path d="M448,348 C448,348 479.724434,331.535378 489.662843,305.328546 C493.759971,294.307473 501.305917,284.920462 511.166554,278.578343 C515.869992,275.60164 520.835286,273.064892 526,271" id="Path" stroke="#535461" stroke-width="2"></path>
            <path d="M531.7698,254.130463 C528.648307,257.045296 525,271 525,271 C525,271 539.455368,268.065959 542.576862,265.155927 C545.703905,262.24526 545.819632,257.413264 542.835344,254.363362 C539.851057,251.31346 534.896844,251.200588 531.7698,254.111255 L531.7698,254.130463 Z" id="Path" fill="#6C63FF"></path>
            <path d="M506.130732,260.936636 C505.181252,265.105856 509.715019,279 509.715019,279 C509.715019,279 519.822235,268.713646 520.8002,264.520017 C521.746159,260.361064 519.242772,256.198739 515.201763,255.211622 C511.160753,254.224505 507.104567,256.784492 506.130732,260.936636 Z" id="Path" fill="#6C63FF"></path>
            <path d="M478.327585,288.707778 C479.542869,292.677936 490.281036,302 490.281036,302 C490.281036,302 493.969611,288.277165 492.754327,284.325935 C491.969074,281.757091 489.868609,279.800969 487.244158,279.19442 C484.619707,278.587872 481.869985,279.423046 480.030787,281.385342 C478.191589,283.347637 477.542332,286.138934 478.327585,288.707778 Z" id="Path" fill="#6C63FF"></path>
            <path d="M461.060623,314.61438 C461.581003,318.81002 470.550457,330 470.550457,330 C470.550457,330 476.492248,316.883205 475.967138,312.687565 C475.444596,308.496141 471.684056,305.529653 467.567735,306.061729 C463.451415,306.593804 460.538081,310.422957 461.060623,314.61438 Z" id="Path" fill="#6C63FF"></path>
            <path d="M521.106806,290.99489 C516.902738,290.843737 505,282.903478 505,282.903478 C505,282.903478 517.4636,275.851242 521.667668,276.002396 C524.385598,276.101118 526.843619,277.621117 528.115819,279.989825 C529.388018,282.358533 529.281118,285.216086 527.835388,287.486072 C526.389657,289.756058 523.824736,291.093612 521.106806,290.99489 Z" id="Path" fill="#6C63FF"></path>
            <path d="M500.874539,320.567074 C496.922333,319.176863 488,308.040948 488,308.040948 C488,308.040948 501.997597,304.971098 505.945024,306.361308 C508.500943,307.260576 510.379496,309.445337 510.873048,312.092611 C511.366601,314.739885 510.400172,317.447488 508.337806,319.195494 C506.27544,320.943499 503.430458,321.466342 500.874539,320.567074 Z" id="Path" fill="#6C63FF"></path>
            <path d="M477.00188,346.889267 C472.820711,346.183529 462,336.720002 462,336.720002 C462,336.720002 475.43878,331.358284 479.619949,332.064022 C483.802694,332.770314 486.608487,336.661621 485.886864,340.7555 C485.16524,344.849378 481.189464,347.595559 477.006719,346.889267 L477.00188,346.889267 Z" id="Path" fill="#6C63FF"></path>
            <path d="M492.998077,332.244678 L468.409883,296.596139 C468.409883,296.596139 467.931421,287.771296 466.342925,285.709774 C464.754429,283.648253 465.998432,279.061248 465.998432,279.061248 C465.998432,279.061248 467.720897,276.540547 466.228094,276.310958 C464.735291,276.081368 465.998432,270.461211 465.998432,270.461211 L465.883601,261.521573 C465.883601,261.521573 467.261573,252.91197 466.113263,250.864798 C465.426588,249.725733 465.471525,248.29007 466.228094,247.196151 C466.228094,247.196151 467.606066,242.264761 466.228094,241.006803 C464.850122,239.748844 465.194615,232.062382 465.539108,225.987829 C465.883601,219.913276 463.122872,216.474218 463.122872,215.55586 C463.122872,214.637502 454.032082,205.697865 454.032082,204.899085 C454.032082,204.100305 448.290531,200.771259 444.840815,199.852901 C441.3911,198.934543 439.668634,198.250558 439.783465,197.791379 C439.898296,197.332201 434.381622,195.500269 434.381622,195.500269 C434.381622,195.500269 429.553935,195.155884 427.711854,192.745196 C425.869773,190.334507 420.252621,189.645739 420.089944,189.621823 C420.056452,189.46398 420.018175,189.301354 419.984682,189.143512 C419.95119,188.985669 419.912913,188.799128 419.879421,188.626936 C420.314822,187.895119 420.71673,187.148954 421.080362,186.378873 C421.190408,186.1445 421.29567,185.900561 421.396147,185.680538 C423.410475,185.589659 425.477433,185.159179 427.05636,183.925136 C428.696107,182.553869 429.692522,180.563403 429.80752,178.429339 C429.904976,176.310515 429.441191,174.203519 428.46304,172.321304 C427.458268,170.255 425.979819,168.116948 426.486989,165.878451 C426.711867,164.921829 427.290807,164.060869 427.587453,163.113812 C428.147255,161.320145 427.630515,159.349503 426.759713,157.684979 C425.888911,156.020456 424.678401,154.556824 423.711906,152.944915 C422.47734,150.890809 421.653492,148.616604 421.286101,146.248557 C421.089931,145.004948 421.013377,143.694375 420.386591,142.599042 C419.867048,141.786222 419.180392,141.09326 418.372263,140.566219 C414.777285,137.995793 410.435954,136.679687 406.018359,136.821042 C402.889213,136.931053 399.769637,137.777664 396.664415,137.390232 C394.793626,137.160643 393.00896,136.49579 391.200372,135.955298 C387.343963,134.816918 382.899045,134.348172 379.540238,136.553187 C376.18143,138.758202 374.84652,143.096486 372.573822,146.487713 C370.564279,149.491507 367.61695,152.007425 366.085869,155.183411 C366.085869,155.126014 366.114577,155.063834 366.133715,155.001653 C365.757347,155.736618 365.469841,156.513762 365.277267,157.31668 C364.693543,159.813465 365.181575,162.425044 365.789222,164.917046 C366.100223,166.203703 366.530839,167.600372 367.645657,168.313056 C368.760475,169.02574 370.339402,168.867897 371.659959,169.102269 C371.612112,169.31751 371.554697,169.537533 371.506851,169.757556 C368.67101,183.150582 376.603341,196.474515 389.731491,200.369477 C389.731491,200.60385 389.731491,200.847789 389.731491,201.067812 C389.729009,201.726428 389.689073,202.38437 389.611876,203.038454 C389.611876,203.038454 378.057004,200.646898 374.951781,202.273156 C371.846559,203.899414 365.75573,205.143024 364.837082,206.051815 C363.918434,206.960607 361.621813,206.281405 359.573993,211.671973 C357.526173,217.062541 357.277373,222.558337 354.631474,225.064688 C351.985576,227.571039 350.612388,229.307309 350.497557,231.144024 C350.382726,232.98074 350.84205,233.435135 349.803787,234.013892 C348.765523,234.592649 347.277504,236.993771 347.736828,237.912129 C347.736828,237.912129 348.310983,240.20324 346.473687,241.346404 C344.63639,242.489568 344.861268,244.785462 344.861268,244.785462 C344.861268,244.785462 344.172282,247.310945 342.564647,247.880136 C340.957013,248.449326 339.918749,252.237551 339.918749,252.237551 L334.689153,258.240358 L324.359145,246.808719 C322.748347,245.02473 319.996056,244.883411 318.2109,246.493033 L313.139197,251.065689 C311.181523,251.540245 309.412405,252.593712 308.062708,254.088616 C306.957441,255.223117 306.067419,256.548814 305.435949,258.001202 L302.656081,260.497987 C300.869694,262.712528 300.588587,265.782973 301.943171,268.284895 L308.560309,275.598274 L308.603371,275.660454 C306.101012,275.97614 303.890514,276.779703 302.201541,278.267251 C292.321288,286.977299 292.201673,295.008145 293.699261,298.667227 C295.196849,302.326308 307.718215,316.43649 307.718215,316.43649 C307.718215,316.43649 314.995631,325.892704 325.50267,330.924539 L325.421332,331.005852 C325.215593,331.225875 325.009854,331.484163 324.8089,331.723319 L324.636653,331.943342 L324.47876,332.163365 L324.29216,332.440785 C324.239529,332.512532 324.191683,332.589062 324.143837,332.665592 C324.09599,332.742122 324.009867,332.880832 323.947667,332.995627 L323.818482,333.21565 C323.741928,333.359143 323.660589,333.50742 323.584035,333.660479 L323.507481,333.808756 C323.411789,334.009646 323.316096,334.21532 323.225188,334.43056 C323.191696,334.50709 323.162988,334.588403 323.129496,334.664933 C323.07208,334.813209 323.00988,334.966269 322.952465,335.143244 C322.895049,335.320219 322.880695,335.339352 322.847203,335.439797 C322.813711,335.540242 322.746726,335.73635 322.69888,335.88941 C322.651033,336.042469 322.631895,336.10465 322.603187,336.209878 C322.574479,336.315107 322.507494,336.544696 322.464433,336.716888 C322.421371,336.88908 322.411802,336.917779 322.383094,337.027791 C322.320894,337.290862 322.258694,337.563499 322.206063,337.850486 C322.206063,337.955714 322.167786,338.065726 322.148648,338.175738 C322.110371,338.367062 322.076878,338.56317 322.04817,338.76406 C322.024247,338.902771 322.009893,339.041481 321.990755,339.180191 C321.971616,339.318902 321.942909,339.558057 321.918985,339.749382 L321.875924,340.189428 C321.875924,340.399885 321.837647,340.619908 321.823293,340.839931 C321.823293,340.973859 321.823293,341.107786 321.79937,341.241713 C321.79937,341.605229 321.761093,341.968746 321.756308,342.351395 C321.526646,355.744111 322.311325,357.70997 322.311325,357.70997 C322.311325,357.70997 323.933313,361.98129 328.411723,362.287409 C329.069031,362.335538 329.729792,362.30018 330.378204,362.18218 C336.354202,361.149028 350.373157,358.743122 355.315676,359.66148 C358.286929,360.211538 363.789249,359.398409 367.707857,358.657026 L368.736552,358.460919 L369.454246,360.73768 L371.726943,360.115876 L373.640794,361.230341 L374.860873,361.928675 C377.128786,369.619921 386.343976,366.998775 386.343976,366.998775 L388.506627,368.25195 L410.688154,368.825924 C410.688154,368.825924 415.47278,371.695791 418.539725,372.595017 C418.904386,372.70532 419.277133,372.786882 419.654543,372.838955 C421.710823,373.003807 423.775295,373.042144 425.83628,372.95375 C427.534822,372.910702 428.850595,372.838955 428.850595,372.838955 C428.850595,372.838955 428.625717,366.817016 428.300363,360.077611 C436.77872,359.72366 444.295368,359.192735 448.845547,358.393955 C460.692281,356.313301 465.6348,345.546514 467.452958,339.79243 C467.999363,342.144246 468.387785,344.529967 468.615622,346.933617 C469.098389,349.033524 469.713647,351.100774 470.457703,353.122965 C471.104631,354.750055 471.953363,356.289503 472.983986,357.705187 C481.720713,354.725308 476.433701,350.25788 474.59162,348.30637 C472.749539,346.35486 475.859546,344.752518 475.859546,344.752518 C475.859546,344.752518 478.251859,343.150175 478.041336,341.657844 C477.830812,340.165512 477.696843,338.56317 485.510137,338.677964 C493.323432,338.792759 492.998077,332.244678 492.998077,332.244678 Z M371.631251,259.063053 C371.731728,259.71834 372.822623,266.782997 373.808256,268.629279 C374.013995,269.021494 374.095333,270.41338 374.066626,272.403155 C369.435107,272.034855 364.612204,271.838747 364.612204,271.838747 C364.751024,272.00624 364.837542,272.210824 364.861005,272.42707 L364.133742,272.264444 L363.076339,272.006156 L371.607328,259.034355 L371.631251,259.063053 Z M354.731951,285.944147 L362.7462,287.216455 L363.420832,287.321683 C363.191059,288.571155 363.051942,289.835598 363.00457,291.105125 C363.00457,291.224703 363.186386,291.368197 363.444756,291.535606 C363.332758,292.167062 363.279898,292.807583 363.286863,293.448851 C363.416048,294.085005 367.16241,295.452975 371.459004,296.591356 C371.401589,296.820945 371.344173,297.040968 371.286758,297.246642 C367.492549,295.252084 361.511767,294.319377 360.82278,292.836612 C360.133794,291.353847 339.770426,284.227009 339.770426,284.227009 C339.770426,284.227009 339.028808,283.834794 337.746529,283.212989 L343.10531,284.227009 L344.578975,284.078733 C347.920011,284.914261 351.311333,285.534156 354.731951,285.934581 L354.731951,285.944147 Z" id="Shape" fill="url(#linearGradient-1)" fill-rule="nonzero"></path>
            <path d="M465.92259,336.757755 C465.92259,336.757755 462.755328,355.866691 446.67648,358.692895 C430.597632,361.519099 376.930136,360.953858 376.930136,360.953858 C376.930136,360.953858 346.246691,356.54593 335.151763,330.649356 C324.056834,304.752781 316.923361,294.4597 326.434659,294.008457 C335.945956,293.557215 387.235627,311.312423 390.160351,311.535669 C393.085075,311.758916 468.752201,272.182566 465.92259,336.757755 Z" id="Path" fill="#434175"></path>
            <path d="M465.92259,336.757755 C465.92259,336.757755 462.755328,355.866691 446.67648,358.692895 C430.597632,361.519099 376.930136,360.953858 376.930136,360.953858 C376.930136,360.953858 346.246691,356.54593 335.151763,330.649356 C324.056834,304.752781 316.923361,294.4597 326.434659,294.008457 C335.945956,293.557215 387.235627,311.312423 390.160351,311.535669 C393.085075,311.758916 468.752201,272.182566 465.92259,336.757755 Z" id="Path" fill="#000000" opacity="0.05"></path>
            <path d="M322.59373,358.394708 C322.59373,358.394708 324.204441,362.676615 328.635089,362.980399 C329.285366,363.026633 329.93882,362.990998 330.580368,362.874315 C336.497458,361.842415 350.382068,359.431431 355.271554,360.347605 C358.215761,360.902131 363.659675,360.082397 367.535895,359.344636 C370.116855,358.862439 372,358.380243 372,358.380243 C372,358.380243 367.449863,343.113896 366.876316,342.655809 C366.302769,342.197723 346.395919,330.142806 346.395919,330.142806 L330.623384,329 L330.575589,329 C330.575589,329 327.65528,329.197701 325.232045,332.168032 C323.56398,334.19808 322.134893,337.534881 322.039302,343.002991 C321.819442,356.441812 322.59373,358.394708 322.59373,358.394708 Z" id="Path" fill="#565387"></path>
            <path d="M321.617564,358.40971 C321.617564,358.40971 323.298041,362.695911 327.920597,363 C326.29846,360.982207 324.799916,358.874105 323.432678,356.686542 L323.51745,345.541454 C322.784423,337.195911 326.818564,331.852641 330,329 L329.950134,329 C329.950134,329 321.283464,329.569563 321.044108,342.997729 C320.804752,356.425894 321.617564,358.40971 321.617564,358.40971 Z" id="Path" fill="#000000" opacity="0.05"></path>
            <path d="M390.193365,334 L404.882658,322.367262 L428,299.285971 C428,299.285971 425.503155,299.164797 421.738754,299 C420.782109,299.605872 418.175249,301.510733 418.079585,303.846974 C417.964787,306.667913 411.827906,304.040853 408.642276,305.654895 C405.456646,307.268938 389.853755,327.505055 387.117749,327.374186 C384.381742,327.243318 382.224506,325.968564 381.081315,327.931588 C381.081315,327.975211 381.028699,328.013987 381,328.05761 L390.193365,334 Z" id="Path" fill="#000000" opacity="0.1"></path>
            <path d="M325,332.141586 C325.52361,332.394248 326.052024,332.618306 326.594849,332.866201 C337.806827,337.633402 351.64166,347.644526 352.674469,349.436993 C353.298957,350.542984 361.321239,355.376927 367.513287,359 C370.107318,358.52328 372,358.04656 372,358.04656 C372,358.04656 367.426819,342.953599 366.850368,342.500715 C366.273917,342.047831 346.266251,330.129827 346.266251,330.129827 L330.413839,329 L330.365801,329 C330.365801,329 327.435507,329.20499 325,332.141586 Z" id="Path" fill="#000000" opacity="0.1"></path>
            <path d="M293.702781,298.954993 C295.185112,302.596616 307.61462,316.594405 307.61462,316.594405 C307.61462,316.594405 315.4916,326.831094 326.688231,331.610127 C337.884863,336.389161 351.700759,346.425131 352.727356,348.222047 C353.389368,349.39291 362.321728,354.745427 368.596447,358.425283 L370.002023,359.242498 L373.120194,361.044193 L374.770425,362 C374.770425,362 378.608174,358.941419 382.402748,355.863721 C386.197322,352.786024 389.90075,349.770454 389.963113,349.598409 C390.073448,349.259097 391.555779,345.38808 391.215179,345.163466 C391.037683,345.04399 390.255741,343.466909 388.816586,341.641318 C387.280656,339.615085 385.287141,337.977846 382.997599,336.862285 C377.720695,334.472768 375.46122,329.034228 375.46122,329.034228 C375.46122,329.034228 374.981502,328.671022 374.19956,328.193119 C372.846754,327.342451 370.673629,326.119018 369.066571,325.91352 C366.548049,325.598104 361.870793,320.479759 361.870793,320.479759 C361.870793,320.479759 358.67107,318.429554 357.414207,315.815422 C356.21491,313.320767 338.5037,301.201139 336.863063,300.082845 L379.802673,327.552728 L390.078246,334.133457 L404.810403,322.663777 L428,299.906021 C428,299.906021 424.881829,299.753092 420.324503,299.56193 C409.055913,299.084027 389.042053,298.314603 386.513937,298.883308 C384.455697,299.361095 382.332582,299.498333 380.229623,299.289525 C380.229623,299.289525 374.530566,299.547593 370.759978,297.564294 C366.98939,295.580996 361.045677,294.653863 360.359679,293.1867 C359.673681,291.719537 339.45834,284.656126 339.45834,284.656126 C339.45834,284.656126 311.936885,270.094411 302.112248,278.744461 C292.287611,287.394512 292.215654,295.318149 293.702781,298.954993 Z" id="Path" fill="#434175"></path>
            <path d="M382,215.753091 L385.541315,227.470298 L390.109516,253.862685 L406.904373,255 L411.765284,246.971897 L416.635792,238.958131 C416.635792,238.958131 419.658867,228.292223 421.832601,217.975155 C423.752013,208.847967 425.009228,199.988383 422.917069,199.027878 C421.064836,198.172502 419.846009,195.099842 419.078244,191.793028 C418.977475,191.386844 418.886303,190.971103 418.79993,190.555362 C418.24028,187.755733 417.868371,184.922113 417.686671,182.073289 C417.686671,182.073289 382.499047,180.257409 387.412742,194.703215 C388.289643,197.17096 388.737528,199.769556 388.737137,202.387256 C388.732263,203.04041 388.692217,203.692834 388.617173,204.341717 C388.111587,208.899874 385.711616,213.038645 382,215.753091 Z" id="Path" fill="#EE8E9E"></path>
            <path d="M374,213.551728 L375.2537,233.547958 L378.100842,250.573074 L381.292512,258.459249 L384.139654,301.60042 C384.139654,301.60042 411.610988,304.787529 418.291006,301.542822 C418.772617,301.336754 419.19058,301.005331 419.501639,300.582849 C427.56934,288.376797 424.923172,252.973005 424.923172,252.973005 L428,230.111256 L425.947187,218.245994 L420.994595,217.718009 L417.166504,217.310021 C417.166504,217.310021 416.305184,218.375591 415.061054,220.021944 C411.682765,224.495416 405.490829,233.293566 405.887993,236.965461 C406.452636,241.995718 405.203722,247.136371 403.265751,247.937949 C401.32778,248.739526 399.734338,250.107487 399.394595,248.739526 C399.054852,247.371565 398.710323,247.025975 399.050066,245.08203 C399.389809,243.138085 397.566681,237.195855 397.566681,237.195855 C397.566681,237.195855 394.494639,230.226453 394.695614,227.255338 C394.896588,224.284222 394.355871,220.85232 393.441914,220.055543 C392.527957,219.258765 391.279043,218.452388 392.303057,214.775693 C393.327071,211.098998 387.809836,204 387.809836,204 L374,213.551728 Z" id="Path" fill="#E3E8F4"></path>
            <path d="M411.047274,264.216266 L412.154809,298.346757 L418.553381,302 C419.02163,301.793971 419.428051,301.462971 419.730718,301.041144 C427.581184,288.830108 425.007795,253.47228 425.007795,253.47228 L428,230.641911 L426.003646,218.795241 L421.182612,218.26787 C423.044015,209.110791 424.263234,200.222193 422.238958,199.258543 C420.438051,198.400366 419.25606,195.317643 418.488232,192 L415.044637,216.16318 C415.044637,216.16318 415.333154,218.339784 415.435531,220.583508 C415.514641,222.251918 415.48672,223.939505 415.156321,224.836036 C414.379185,226.892782 414.932952,230.546025 414.932952,230.546025 C412.936598,234.170502 411.940747,240.887291 411.452129,247.373954 C410.795985,255.998867 411.047274,264.216266 411.047274,264.216266 Z" id="Path" fill="#000000" opacity="0.1"></path>
            <path d="M419.229484,192 C419.229484,192 425.007413,192.712919 426.837091,195.105263 C428.666768,197.497608 433.486524,197.827751 433.486524,197.827751 C433.486524,197.827751 438.990002,199.650718 438.874443,200.105263 C438.758884,200.559809 440.477818,201.248804 443.920501,202.157895 C447.363184,203.066986 453.068889,206.373206 453.068889,207.172249 C453.068889,207.971292 462.125793,216.851675 462.125793,217.76555 C462.125793,218.679426 464.879939,222.07177 464.533264,228.129187 C464.186588,234.186603 463.844727,241.799043 465.2218,243.052632 C466.598873,244.30622 465.2218,249.205742 465.2218,249.205742 C464.475693,250.300369 464.447399,251.728717 465.149576,252.851675 C466.295532,254.904306 464.923274,263.449761 464.923274,263.449761 L465.034018,272.334928 C465.034018,272.334928 463.772503,277.913876 465.265135,278.143541 C466.757766,278.373206 465.034018,280.875598 465.034018,280.875598 C465.034018,280.875598 463.772503,285.435407 465.380693,287.483254 C466.988884,289.5311 467.441488,298.30622 467.441488,298.30622 L491.997687,333.712919 C491.997687,333.712919 492.344363,340.205742 484.548973,340.090909 C476.753584,339.976077 476.845068,341.574163 477.095445,343.052632 C477.345822,344.5311 474.919091,346.129187 474.919091,346.129187 C474.919091,346.129187 471.823084,347.722488 473.657577,349.660287 C475.492069,351.598086 480.76443,356.038278 472.054202,359 C471.02343,357.593352 470.175702,356.062883 469.531172,354.444976 C468.791838,352.435361 468.179154,350.381946 467.69668,348.296651 C467.69668,348.296651 466.892585,339.636364 465.289209,338.497608 C463.685834,337.358852 463.912136,331.889952 463.912136,331.889952 C463.912136,331.889952 466.204048,327.449761 462.997298,325.626794 C459.790547,323.803828 413.196363,298.196172 413.196363,298.196172 L412.050407,264.133971 C412.050407,264.133971 411.246312,238.961722 416.061253,230.5311 C416.061253,230.5311 415.488275,226.885167 416.29237,224.837321 C417.096465,222.789474 416.176811,216.177033 416.176811,216.177033 L419.229484,192 Z" id="Path" fill="#565387"></path>
            <path d="M388.74546,205.323694 C388.74546,205.323694 377.265203,202.954921 374.180454,204.554924 C371.095704,206.154927 365.065331,207.437812 364.105845,208.331508 C363.146358,209.225203 360.905957,208.562139 358.852656,213.938725 C356.799354,219.315312 356.56428,224.802409 353.940084,227.320132 C351.315889,229.837854 349.943823,231.553173 349.828684,233.383807 C349.713546,235.214441 350.169302,235.670898 349.142652,236.266695 C348.116001,236.862492 346.628797,239.240875 347.084553,240.158594 C347.540309,241.076314 370.884617,261.179654 370.884617,261.179654 C370.884617,261.179654 372.031204,268.867357 373.057854,270.789282 C374.084505,272.711208 371.916065,299.502849 369.632487,301.333483 C367.348909,303.164117 385.051437,302.995949 385.051437,302.995949 C385.051437,302.995949 385.84781,285.434354 386.533843,284.516635 C387.219876,283.598916 386.0541,264.816899 386.0541,264.816899 C386.0541,264.816899 385.938962,248.802454 387.426166,244.569413 C388.91337,240.336372 388.74546,226.282292 388.74546,226.282292 C388.74546,226.282292 390.059956,217.840234 391.657502,215.870261 C393.255047,213.900287 388.74546,205.323694 388.74546,205.323694 Z" id="Path" fill="#000000" opacity="0.1"></path>
            <path d="M388.788724,204.323759 C388.788724,204.323759 377.291767,201.95487 374.20382,203.554951 C371.115874,205.155032 365.079251,206.413954 364.142782,207.331718 C363.206313,208.249482 360.944381,207.557555 358.860137,212.934403 C356.775893,218.31125 356.574192,223.803419 353.942475,226.321264 C351.310757,228.839108 349.942071,230.55451 349.826814,232.385233 C349.711556,234.215956 350.172587,234.672435 349.144872,235.244236 C348.117158,235.816037 346.628412,238.21856 347.08464,239.131519 C347.540869,240.044478 370.866149,260.18243 370.866149,260.18243 C370.866149,260.18243 372.009121,267.870505 373.036836,269.792524 C374.064551,271.714542 371.893864,298.502679 369.607919,300.333402 C367.321974,302.164125 385.042848,301.995949 385.042848,301.995949 C385.042848,301.995949 385.84485,284.433502 386.531593,283.520543 C387.218337,282.607584 386.051353,263.81985 386.051353,263.81985 C386.051353,263.81985 385.940898,247.804629 387.424841,243.571382 C388.908784,239.338136 388.745502,225.264153 388.745502,225.264153 C388.745502,225.264153 390.061361,216.821686 391.655759,214.856422 C393.250158,212.891157 388.788724,204.323759 388.788724,204.323759 Z" id="Path" fill="#565387"></path>
            <path d="M387.471859,195.428022 C388.352697,197.842308 388.802594,200.38461 388.802201,202.945602 C400.41494,206.282169 412.876586,201.505307 419,191.370025 C418.437837,188.631046 418.064258,185.85881 417.881742,183.071702 C417.881742,183.071702 382.540917,181.295159 387.471859,195.428022 Z" id="Path" fill="#000000" opacity="0.1"></path>
            <path d="M370.00001,177.024365 C370.012259,190.854256 380.850065,202.253907 394.66219,202.965062 C408.474316,203.676216 420.425677,193.449928 421.858343,179.694432 C423.291008,165.938936 413.703459,153.469493 400.041207,151.319347 C386.378955,149.169202 373.424621,158.091036 370.56272,171.621601 C370.187035,173.397939 369.998437,175.208738 370.00001,177.024365 Z" id="Path" fill="#EE8E9E"></path>
            <path d="M353.018303,238 L346.721342,239.939539 C346.721342,239.939539 347.293793,242.219096 345.460988,243.358875 C343.628183,244.498653 343.859087,246.782999 343.859087,246.782999 C343.859087,246.782999 343.171184,249.287638 341.569283,249.857528 C339.967382,250.427417 338.933122,254.167614 338.933122,254.167614 L333.665611,260.211314 C333.665611,260.211314 331.717353,261.806046 332.06371,262.605807 C332.410067,263.405567 330,263.63065 330,263.63065 L331.260354,283.945525 L342.141734,286 L348.876452,285.315175 L354.374868,283.2607 L359.185381,280.387309 L361.378975,274.846453 L371,260.254415 L353.018303,238 Z" id="Path" fill="#565387"></path>
            <path d="M331.924542,265.429932 C331.924542,265.429932 318.05389,245.385988 307.670033,256.204266 C297.286175,267.022543 311.883841,284.555613 315.298891,283.986482 C318.713941,283.417351 335,282.508654 335,282.508654 L331.924542,265.429932 Z" id="Path" fill="#EE8E9E"></path>
            <path d="M318.956732,252.187262 L323.073267,252.184525 C330.0431,252.183875 335.693794,257.833514 335.694443,264.803348 C335.694444,264.804132 335.694444,264.804917 335.694443,264.805701 L335.688979,272.928215 C335.688329,279.897129 330.03907,285.546388 323.070156,285.547038 L318.953622,285.552129 C311.983788,285.552779 306.333095,279.90314 306.332445,272.933306 C306.332445,272.932522 306.332445,272.931737 306.332445,272.930952 L306.337909,264.808439 C306.338559,257.839525 311.987818,252.190266 318.956732,252.189616 Z" id="Rectangle" fill="#30374E" transform="translate(321.013444, 268.868327) rotate(-42.050000) translate(-321.013444, -268.868327) "></path>
            <path d="M318.956732,252.187262 L323.073267,252.184525 C330.0431,252.183875 335.693794,257.833514 335.694443,264.803348 C335.694444,264.804132 335.694444,264.804917 335.694443,264.805701 L335.688979,272.928215 C335.688329,279.897129 330.03907,285.546388 323.070156,285.547038 L318.953622,285.552129 C311.983788,285.552779 306.333095,279.90314 306.332445,272.933306 C306.332445,272.932522 306.332445,272.931737 306.332445,272.930952 L306.337909,264.808439 C306.338559,257.839525 311.987818,252.190266 318.956732,252.189616 Z" id="Rectangle" fill="#000000" opacity="0.1" transform="translate(321.013444, 268.868327) rotate(-42.050000) translate(-321.013444, -268.868327) "></path>
            <path d="M319.347751,250.537613 L323.464286,250.534876 C330.434119,250.534226 336.084813,256.183866 336.085463,263.153699 C336.085463,263.154484 336.085463,263.155268 336.085463,263.156053 L336.079998,271.278566 C336.079348,278.247481 330.430089,283.89674 323.461175,283.897389 L319.344641,283.90248 C312.374807,283.90313 306.724114,278.253491 306.723464,271.283657 C306.723464,271.282873 306.723464,271.282088 306.723464,271.281304 L306.728929,263.15879 C306.729578,256.189876 312.378837,250.540617 319.347752,250.539967 Z" id="Rectangle" fill="#30374E" transform="translate(321.404463, 267.218678) rotate(-42.050000) translate(-321.404463, -267.218678) "></path>
            <circle id="Oval" fill="#6C63FF" cx="321.5" cy="267.5" r="6.5"></circle>
            <circle id="Oval" fill="#000000" opacity="0.1" cx="321.5" cy="267.5" r="6.5"></circle>
            <circle id="Oval" fill="#6C63FF" cx="321.5" cy="266.5" r="6.5"></circle>
            <path d="M323.000317,269.027294 C322.885411,284.005632 354.00597,287.179534 354.00597,287.179534 L361.953682,288.437657 L365.515789,289 L367,274.379083 C367,274.379083 365.367368,274.136037 363.327774,273.66424 C360.316261,272.963695 356.414222,271.757993 355.595512,270.066199 C354.230995,267.230656 323.110436,254.053721 323.000317,269.027294 Z" id="Path" fill="#EE8E9E"></path>
            <path d="M371,171.756145 C371.709284,171.809445 372.378219,172.11311 372.891838,172.614951 C373.762084,173.555777 373.80938,175.225141 374.939753,175.804111 C375.362167,175.99165 375.829645,176.047062 376.282958,175.963327 C379.276792,175.5291 381.012554,172.103527 383.883419,171.138577 C385.519859,170.598205 387.321835,170.950412 388.920438,171.577629 C389.563274,171.783122 390.139988,172.161445 390.589985,172.672848 C391.535904,173.941757 390.878491,175.808935 391.323073,177.348031 C391.94265,179.480571 394.439876,180.329727 396.601301,180.609562 C398.762727,180.889398 401.198468,181.04379 402.640995,182.708329 C403.662588,183.890393 403.922715,185.603179 403.714613,187.151924 C403.587111,187.692625 403.587111,188.256463 403.714613,188.797164 C404.310542,190.5196 407.233432,190.244589 407.994897,188.903308 C408.55299,187.914235 408.382724,187.094027 409.697552,186.819016 C410.586716,186.630851 411.631956,187.012006 412.454906,187.301491 C414.747186,188.10828 417.163138,188.487443 419.587136,188.420833 C423.769338,179.263313 422.441914,168.471636 416.171459,160.652095 C409.901004,152.832553 399.795124,149.366382 390.167387,151.733072 C380.53965,154.099763 373.090689,161.881266 371,171.756145 Z" id="Path" fill="#000000" opacity="0.1"></path>
            <path d="M403.392607,187.798379 C403.263938,187.261868 403.263938,186.7024 403.392607,186.165889 C403.597841,184.619571 403.340105,182.924845 402.309163,181.756729 C400.877298,180.105089 398.395399,179.947106 396.214192,179.674227 C394.032985,179.401347 391.512903,178.558771 390.887655,176.442758 C390.439004,174.915589 391.116754,173.058093 390.147858,171.799017 C389.696498,171.291665 389.115588,170.917563 388.467804,170.717073 C386.849797,170.089929 385.031328,169.759601 383.379911,170.276636 C380.482771,171.234108 378.731124,174.64271 375.709889,175.063997 C375.252427,175.147083 374.78067,175.0921 374.35439,174.906014 C373.213671,174.331531 373.165943,172.675104 372.287732,171.746356 C370.908369,170.281423 368.288057,171.224533 366.598456,170.137802 C365.495921,169.424485 365.071134,168.040938 364.765669,166.762712 C364.164286,164.282859 363.682225,161.683322 364.259744,159.203468 C365.247731,154.961866 369.032626,152.055937 371.419068,148.436692 C373.667095,145.061602 374.927136,140.776913 378.306337,138.555577 C381.685538,136.334242 386.024088,136.82734 389.832848,137.961945 C391.617906,138.493342 393.383873,139.153998 395.230978,139.398153 C398.304714,139.776355 401.387997,138.919417 404.480824,138.833244 C408.849209,138.691683 413.142201,139.999137 416.694631,142.553024 C417.495065,143.078783 418.175082,143.769021 418.689695,144.578078 C419.305397,145.669597 419.386536,146.971759 419.572679,148.206898 C419.933611,150.562973 420.743868,152.827196 421.95912,154.875693 C422.913696,156.479459 424.11169,157.934817 424.975582,159.591244 C425.839473,161.247672 426.345399,163.205703 425.791745,164.986601 C425.500599,165.944073 424.92308,166.772287 424.7083,167.734547 C424.202375,169.96067 425.662877,172.086258 426.660409,174.140037 C427.626551,176.013208 428.084166,178.10844 427.98727,180.215199 C427.87443,182.335508 426.889187,184.313705 425.266727,185.677578 C423.658266,186.941442 421.543879,187.362729 419.505858,187.429753 C417.012149,187.514099 414.524145,187.139279 412.165165,186.323872 C411.329911,186.03663 410.256012,185.658429 409.382575,185.845136 C408.055713,186.118015 408.227537,186.931867 407.664337,187.913276 C406.938859,189.253737 403.99399,189.507467 403.392607,187.798379 Z" id="Path" fill="#434175"></path>
            <path d="M389.252288,335 L403.916832,323.388167 L427,300.348355 C427,300.348355 423.89614,300.193531 419.359729,300 C418.533625,300.851534 417.798249,301.935306 417.750497,303.144871 C417.635893,305.960741 411.509351,303.34324 408.329089,304.954382 C405.148826,306.565524 389.572224,326.760437 386.840828,326.629804 C384.109431,326.499171 381.95583,325.226707 380.814564,327.186204 C380.790323,327.231482 380.763207,327.275119 380.733386,327.316837 C380.279695,327.841799 379.672401,328.206244 379,328.357064 L389.252288,335 Z" id="Path" fill="#000000" opacity="0.1"></path>
            <path d="M360,333.73042 L367.384514,357.297078 L368.542682,361 L372.060256,360.043173 L379.813278,357.914232 L414.347727,348.432073 C414.347727,348.432073 420.837294,348.345958 426.790849,345.116666 C433.371346,341.538132 440.794146,339.739296 448.250448,340.43778 C452.816116,340.863568 457.893867,338.897288 462.129314,331.118282 C462.129314,331.118282 471.700947,302.891875 447.542147,294.758842 C423.383348,286.62581 422.234752,299.064565 422.234752,299.064565 C422.234752,299.064565 422.110321,299.131543 421.909316,299.265499 C420.952153,299.863516 418.343883,301.743682 418.248167,304.049636 C418.133308,306.834003 411.993106,304.241001 408.805752,305.834119 C405.618399,307.427236 390.007067,327.401007 387.26958,327.271836 C384.532093,327.142664 382.37369,325.884436 381.22988,327.822011 C381.22988,327.865069 381.177236,327.903342 381.148521,327.946399 C380.306217,329.108944 377.769735,329.38164 376.089914,329.424697 C375.175823,329.453402 374.510594,329.424697 374.510594,329.424697 L374.295233,329.491675 L372.505337,329.989225 L360,333.73042 Z" id="Path" fill="#434175"></path>
            <path d="M362,288.449969 L365.529412,289 L367,274.699192 C367,274.699192 365.382353,274.461467 363.36148,274 C363.897533,275.981044 362.683112,283.704786 362,288.449969 Z" id="Path" fill="#000000" opacity="0.1"></path>
            <path d="M455.612538,220.3476 C455.612538,220.3476 466.204492,217.304274 463.582816,247.055979 C460.96114,276.807683 441.375116,295.602468 441.375116,295.602468 C441.375116,295.602468 418.822962,305.404533 408.685496,303.82844 C398.54803,302.252348 391.147058,301.935236 391.147058,301.935236 C387.956484,300.339616 384.464854,299.419206 380.894775,299.232687 C375.196935,299.005502 363.241519,295.512541 363.011883,294.386084 C362.782247,293.259628 365.973229,276.694091 364.604982,275.454042 C364.604982,275.454042 380.550321,276.102464 382.148204,277.24312 C383.746086,278.383775 386.018525,277.564965 387.726441,277.24312 C389.434358,276.921275 394.67771,272.410716 405.040027,276.358047 C405.040027,276.358047 408.570678,276.694091 409.938925,275.794819 C411.307172,274.895547 413.498281,275.567634 413.498281,275.567634 C413.498281,275.567634 415.646333,274.777221 415.976434,274.30392 C416.306536,273.830619 419.047814,274.30392 419.047814,274.30392 C419.377519,274.463264 419.762349,274.466679 420.09489,274.313211 C420.427431,274.159743 420.672067,273.865829 420.760515,273.513508 C421.118322,272.591011 421.660109,271.74918 422.353613,271.038143 C422.353613,271.038143 425.429777,253.909378 431.23765,247.486683 C431.23765,247.486683 432.945567,246.019449 432.491079,244.216172 C432.036591,242.412895 441.958774,216.736313 455.612538,220.3476 Z" id="Path" fill="#000000" opacity="0.1"></path>
            <path d="M454.611433,217.346367 C454.611433,217.346367 465.200525,214.303685 462.58434,244.049096 C459.968155,273.794507 440.353943,292.604244 440.353943,292.604244 C440.353943,292.604244 417.807881,302.404235 407.673154,300.828476 C397.538427,299.252717 390.139454,298.912013 390.139454,298.912013 C386.950093,297.315818 383.459209,296.395551 379.88994,296.210035 C374.198423,295.982899 362.241454,292.490676 362.01188,291.364458 C361.782306,290.238239 364.972425,273.676207 363.609331,272.43642 C363.609331,272.43642 379.550362,273.084705 381.143031,274.22512 C382.735699,275.365534 385.017089,274.546896 386.724544,274.22512 C388.431999,273.903343 393.669152,269.39847 404.033453,273.340234 C404.033453,273.340234 407.56315,273.676207 408.926245,272.777125 C410.289339,271.878043 412.489421,272.549988 412.489421,272.549988 C412.489421,272.549988 414.622545,271.759743 414.962123,271.310202 C415.301701,270.860661 418.037455,271.310202 418.037455,271.310202 C418.365733,271.469647 418.749284,271.473651 419.080889,271.321097 C419.412495,271.168542 419.656579,270.875794 419.74491,270.524688 C420.101817,269.600585 420.643516,268.757232 421.337579,268.045115 C421.337579,268.045115 424.412911,250.919973 430.219216,244.498637 C430.219216,244.498637 431.926671,243.031714 431.472306,241.23355 C431.017941,239.435387 440.923095,213.740576 454.611433,217.346367 Z" id="Path" fill="#565387"></path>
            <path d="M372,329.553398 L387.55271,348 C387.612071,347.946602 387.651646,347.907767 387.651646,347.893204 C387.770369,347.543689 389.298927,343.616505 388.947705,343.383495 C388.596483,343.150485 385.885641,337.373786 380.468906,334.946602 C377.159503,333.490291 374.992808,330.825243 373.810525,329 L372,329.553398 Z" id="Path" fill="#000000" opacity="0.1"></path>
            <path d="M372.312555,362.046022 L373.921111,363 C373.921111,363 377.66194,359.947269 381.360684,356.875458 C385.059429,353.803648 388.669328,350.793846 388.730117,350.622129 C388.837666,350.283467 390.282561,346.419854 389.950562,346.195669 C389.777549,346.076422 389.015355,344.502358 387.612544,342.680259 C377.643236,339.818323 383.988616,346.892074 384.834979,347.216426 C384.834979,347.216426 372.677285,344.354491 372.031992,357.858056 C371.943801,359.260558 372.038142,360.668797 372.312555,362.046022 Z" id="Path" fill="#000000" opacity="0.1"></path>
            <path d="M385.840383,367.991938 L388.006952,369.253581 L410.007433,369.826617 C410.007433,369.826617 414.723188,372.715875 417.784125,373.592283 C418.144811,373.705538 418.514412,373.787697 418.888931,373.83787 C420.925218,374.003831 422.96977,374.042428 425.010804,373.95344 C426.694319,373.910101 428,373.83787 428,373.83787 C428,373.83787 426.957369,345.908377 426.173004,343.019119 C425.799952,341.613013 423.958607,341.921201 422.141176,342.624253 C420.775754,343.181813 419.459097,343.853504 418.205003,344.632288 C418.205003,344.632288 408.869147,345.542404 407.386506,346.351396 C405.903865,347.160388 401.695077,345.869853 399.07415,346.351396 C396.453224,346.832939 391.790078,343.245444 391.790078,343.245444 C379.034582,339.007866 386.208652,346.914801 387.117367,347.261512 C387.117367,347.261512 374.711009,344.372254 374.027081,358.004736 C373.343153,371.637218 385.840383,367.991938 385.840383,367.991938 Z" id="Path" fill="#565387"></path>
            <path d="M417.009925,357.221204 C417.24043,363.013654 421.550868,370.201118 424.118691,374 C425.741444,373.956557 427,373.884151 427,373.884151 C427,373.884151 425.994999,345.887311 425.238944,342.991086 C424.879356,341.58159 423.10447,341.890521 421.352634,342.595269 C419.245821,346.746525 416.825521,352.553455 417.009925,357.221204 Z" id="Path" fill="#565387"></path>
            <path d="M417.009925,357.221204 C417.24043,363.013654 421.550868,370.201118 424.118691,374 C425.741444,373.956557 427,373.884151 427,373.884151 C427,373.884151 425.994999,345.887311 425.238944,342.991086 C424.879356,341.58159 423.10447,341.890521 421.352634,342.595269 C419.245821,346.746525 416.825521,352.553455 417.009925,357.221204 Z" id="Path" fill="#000000" opacity="0.1"></path>
            <path d="M413.357593,357.965418 C414.817465,363.546991 414.803605,369.808186 417.132008,373.591895 C417.480412,373.705258 417.837427,373.787495 418.199193,373.837716 C420.166137,374.003834 422.141065,374.042469 424.112596,373.953396 C425.738782,373.910016 427,373.837716 427,373.837716 C427,373.837716 425.992873,345.88165 425.235219,342.989643 C424.874871,341.5822 423.09623,341.89068 421.340688,342.594402 C420.021763,343.152492 418.749942,343.824822 417.538554,344.604347 C417.538554,344.604347 411.491175,350.822161 413.357593,357.965418 Z" id="Path" fill="#000000" opacity="0.05"></path>
            <path d="M337,302 C337,302 348.366698,305.514972 358,318 L337,302 Z" id="Path" fill="#000000" opacity="0.1"></path>
            <g id="Group" opacity="0.1" transform="translate(363.000000, 157.000000)" fill="#000000">
                <path d="M62.8381481,7.95294118 C62.8201609,8.03253365 62.797657,8.1110864 62.7707407,8.18823529 C62.6654849,8.50987162 62.5384132,8.82429391 62.3903704,9.12941176 C62.5034168,8.72498268 62.653274,8.33125488 62.8381481,7.95294118 Z" id="Path"></path>
                <path d="M0.669259259,2.51764706 C0.859796196,1.73257195 1.14591031,0.972643727 1.52148148,0.254117647 C1.4637037,0.447058824 1.40111111,0.64 1.35296296,0.837647059 C0.77037037,3.27529412 1.25666667,5.83058824 1.86333333,8.26823529 C2.1762963,9.52470588 2.6,10.8847059 3.71222222,11.5858824 C5.42148148,12.6541176 8.04555556,11.7223529 9.45148148,13.1623529 C10.3374074,14.08 10.3855556,15.7082353 11.5411111,16.2729412 C11.9710599,16.4561367 12.4470464,16.5101937 12.9085185,16.4282353 C15.9514815,16.0047059 17.7233333,12.6635294 20.6459259,11.7223529 C22.3118519,11.1952941 24.1414815,11.5388235 25.7737037,12.1552941 C26.4271792,12.3523718 27.0131922,12.7201064 27.4685185,13.2188235 C28.4314815,14.4564706 27.7622222,16.2823529 28.2148148,17.7788235 C28.8455556,19.8588235 31.3877778,20.6870588 33.5881481,20.9552941 C35.7885185,21.2235294 38.2681481,21.3788235 39.7366667,23.0070588 C40.7766667,24.1552941 41.0414815,25.8305882 40.8296296,27.3411765 C40.702167,27.8688248 40.702167,28.418234 40.8296296,28.9458824 C41.4362963,30.6258824 44.4118519,30.3576471 45.162963,29.0494118 C45.7311111,28.0847059 45.5625926,27.2847059 46.9011111,27.0164706 C47.8014815,26.8329412 48.8655556,27.2047059 49.7033333,27.4870588 C52.0830378,28.2885882 54.5929005,28.6570285 57.1085185,28.5741176 C59.1644444,28.5035294 61.3022222,28.1035294 62.92,26.8517647 C63.6591886,26.2757869 64.2661554,25.5542855 64.7014815,24.7341176 C64.3243531,26.2274012 63.4629188,27.5613061 62.2459259,28.5364706 C60.6281481,29.7788235 58.4951852,30.1929412 56.4344444,30.2588235 C53.9203783,30.3421171 51.4120234,29.9736586 49.0340741,29.1717647 C48.1914815,28.8894118 47.1081481,28.5176471 46.227037,28.7011765 C44.8885185,28.9694118 45.057037,29.7694118 44.4937037,30.7341176 C43.7137037,32.0611765 40.742963,32.3105882 40.1314815,30.6305882 C40.0040188,30.1029399 40.0040188,29.5535307 40.1314815,29.0258824 C40.3433333,27.5058824 40.0833333,25.84 39.0433333,24.6917647 C37.57,23.0682353 35.0903704,22.9129412 32.89,22.6447059 C30.6896296,22.3764706 28.1474074,21.5482353 27.5214815,19.4682353 C27.0640741,17.9670588 27.7525926,16.1411765 26.7751852,14.9035294 C26.3172669,14.4055529 25.7299454,14.0380413 25.0755556,13.84 C23.4433333,13.2235294 21.6137037,12.8988235 19.9477778,13.4070588 C17.0203704,14.3482353 15.2533333,17.6988235 12.2103704,18.1129412 C11.7488982,18.1948996 11.2729118,18.1408426 10.842963,17.9576471 C9.68740741,17.3929412 9.63925926,15.7647059 8.75333333,14.8517647 C7.36185185,13.4117647 4.72333333,14.3388235 3.01888889,13.2705882 C1.90185185,12.5694118 1.47814815,11.2094118 1.16518519,9.95294118 C0.568148148,7.51058824 0.0818518519,4.95529412 0.669259259,2.51764706 Z" id="Path"></path>
            </g>
            <path d="M428.01641,250.502918 C425.960672,253.3438 423.612605,255.97246 421.792617,258.977331 C419.972629,261.982202 418.685435,265.48869 419.06735,269 C420.953348,267.022476 421.811477,264.292529 422.999655,261.813389 C425.008243,257.617181 428.01641,254.057638 430.543647,250.199055 C431.015146,249.461101 434.131758,245.207013 432.561664,245.004438 C431.269756,244.835625 428.718944,249.533449 428.01641,250.502918 Z" id="Path" fill="#000000" opacity="0.1"></path>
        </g>
    </g>
</svg>